<?xml version="1.0" standalone="no"?>
<!DOCTYPE svg PUBLIC "-//W3C//DTD SVG 1.1//EN" "http://www.w3.org/Graphics/SVG/1.1/DTD/svg11.dtd" >
<svg xmlns="http://www.w3.org/2000/svg" xmlns:xlink="http://www.w3.org/1999/xlink" version="1.1">
<metadata></metadata>
<defs>
<font id="rm_prolight_italic" horiz-adv-x="572" >
<font-face units-per-em="1000" ascent="751" descent="-249" />
<missing-glyph horiz-adv-x="294" />
<glyph unicode="fi" horiz-adv-x="520" d="M464 490l-105 -490h-56l95 443h-215l-95 -443h-56l95 443h-79l10 47h78l18 89q28 127 147 127q29 0 53 -7l-10 -46q-18 7 -39 7q-43 0 -63.5 -19t-30.5 -66l-18 -85h271zM444 699h73l-17 -81h-73z" />
<glyph unicode="fl" horiz-adv-x="540" d="M346 655q-18 7 -41 7q-76 0 -94 -87l-18 -85h103l-10 -46h-103l-95 -444h-56l95 444h-79l10 46h78l18 89q28 127 147 127q30 0 54 -7zM397 -3q-60 0 -78.5 30t-5.5 93l123 579h56l-123 -577q-9 -43 2 -62.5t52 -19.5l-9 -43h-17z" />
<glyph unicode=" "  horiz-adv-x="294" />
<glyph unicode="&#x09;" horiz-adv-x="294" />
<glyph unicode="&#xa0;" horiz-adv-x="294" />
<glyph unicode="!" horiz-adv-x="355" d="M162 416l60 283h61l-60 -282l-75 -265h-23zM75 0l15 68h58l-15 -68h-58z" />
<glyph unicode="&#x22;" horiz-adv-x="267" d="M149 501h-46l42 198h46zM230 501h-46l42 198h46z" />
<glyph unicode="#" horiz-adv-x="520" d="M280 227h-119l-78 -227h-40l78 227h-89l13 39h88l59 170h-90l14 40h89l75 222h40l-76 -222h120l76 222h38l-75 -222h88l-14 -40h-88l-57 -170h88l-13 -39h-88l-77 -227h-40zM231 436l-57 -170h119l57 170h-119z" />
<glyph unicode="$" horiz-adv-x="649" d="M558 186q-20 -94 -92 -147t-181 -58l-24 -114h-44l24 113q-112 4 -165.5 60.5t-40.5 164.5h60q-10 -78 29 -123.5t128 -50.5l66 309l-43 11q-90 23 -123 65.5t-18 111.5q18 85 85.5 136.5t178.5 54.5l25 118h44l-25 -119q87 -6 135.5 -49.5t42.5 -132.5h-58 q8 121 -130 134l-61 -286l37 -9q97 -24 131.5 -69t18.5 -120zM329 395l59 276q-167 -6 -195 -139q-12 -55 14.5 -84t97.5 -47zM296 31q84 5 136 44.5t67 112.5q12 56 -13 86.5t-107 50.5l-19 5z" />
<glyph unicode="%" horiz-adv-x="870" d="M390 493q-21 -100 -74.5 -161t-118.5 -61t-92.5 61t-6.5 161q22 100 75.5 161.5t118.5 61.5t92.5 -61.5t5.5 -161.5zM238 0h-39l434 699h40zM340 493q18 84 2.5 132.5t-59.5 48.5t-80.5 -48.5t-54.5 -132.5q-17 -83 -1.5 -131t59.5 -48t80.5 48.5t53.5 130.5zM774 209 q-21 -100 -74.5 -161.5t-118.5 -61.5q-66 0 -92.5 61.5t-5.5 161.5t74 161.5t119 61.5q65 0 92 -61.5t6 -161.5zM724 209q17 83 2 132t-59 49t-80.5 -49t-53.5 -132q-18 -83 -2 -131.5t60 -48.5t79.5 48t53.5 132z" />
<glyph unicode="&#x26;" horiz-adv-x="698" d="M428 106q-132 -116 -245 -116q-88 0 -133 54.5t-28 137.5q28 131 210 208q-30 51 -38.5 88t0.5 72q16 72 73 117.5t131 45.5q65 0 100.5 -44.5t21.5 -108.5q-13 -61 -60.5 -105.5t-139.5 -80.5l129 -183q42 46 92 125h58q-60 -101 -121 -164l107 -152h-81zM463 554 q11 48 -10.5 79t-66.5 31q-47 0 -85 -32t-48 -80q-7 -32 2 -62t41 -80q79 29 118 62.5t49 81.5zM257 350q-150 -59 -172 -163q-14 -63 18.5 -104t96.5 -41q88 0 201 101z" />
<glyph unicode="'" horiz-adv-x="233" d="M133 501h-23l60 198h61z" />
<glyph unicode="(" horiz-adv-x="284" d="M344 765q-159 -204 -211 -447q-51 -243 20 -444h-35q-96 203 -45 444q51 240 236 447h35z" />
<glyph unicode=")" horiz-adv-x="284" d="M199 318q-51 -239 -233 -444h-35q159 207 209 444q51 239 -22 447h35q97 -207 46 -447z" />
<glyph unicode="*" horiz-adv-x="344" d="M138 632l73 -36l18 103h36l-26 -103l89 36l2 -37l-89 -29l37 -80l-33 -23l-31 83l-65 -83l-23 23l71 80l-77 29z" />
<glyph unicode="+" horiz-adv-x="670" d="M427 653l-59 -278h256l-12 -58h-256l-59 -277h-54l59 277h-256l12 58h256l59 278h54z" />
<glyph unicode="," horiz-adv-x="199" d="M67 41q-13 -64 -25 -93t-43 -78h-16q33 63 46 130h-36l18 82h65z" />
<glyph unicode="-" horiz-adv-x="406" d="M41 307l12 58h308l-12 -58h-308z" />
<glyph unicode="." horiz-adv-x="198" d="M-7 0l18 82h64l-18 -82h-64z" />
<glyph unicode="/" horiz-adv-x="503" d="M-33 -97h-47l618 897h47z" />
<glyph unicode="0" horiz-adv-x="575" d="M212 -11q-102 0 -148.5 97t-10.5 264q36 168 123.5 264.5t189.5 96.5t148 -96.5t10 -264.5q-36 -167 -123 -264t-189 -97zM355 663q-83 0 -146 -85.5t-93 -227.5q-31 -136 -3.5 -223.5t110.5 -87.5t146 85t93 226q31 137 3.5 225t-110.5 88z" />
<glyph unicode="1" horiz-adv-x="362" d="M96 570q73 2 121.5 30.5t78.5 98.5h33l-149 -699h-59l114 535h-147z" />
<glyph unicode="2" horiz-adv-x="543" d="M-15 42q136 95 262 199q161 135 188 261q15 71 -16 115t-98 44q-59 0 -103 -31.5t-67 -89.5h-58q23 69 75 113q69 56 165 56q99 0 140 -59t23 -145q-11 -50 -35.5 -97t-60.5 -87t-64 -65.5t-65 -54.5q-152 -119 -201 -153h339l-11 -48h-422z" />
<glyph unicode="3" horiz-adv-x="550" d="M190 -10q-145 0 -204 102l48 42q56 -95 170 -95q72 0 123.5 45.5t66.5 113.5q15 73 -26.5 110t-138.5 37h-50l9 42l285 262h-348l11 50h416l-10 -49l-279 -254q113 -2 162 -52t29 -145q-20 -93 -92.5 -151t-171.5 -58z" />
<glyph unicode="4" horiz-adv-x="541" d="M479 228l-11 -50h-100l-38 -178h-58l38 178h-314l10 47l424 474h49l-100 -471h100zM401 603l-335 -375h255z" />
<glyph unicode="5" horiz-adv-x="593" d="M217 -10q-76 0 -123 36t-59 101h67q28 -88 126 -88q78 0 135.5 56.5t76.5 145.5q18 83 -15.5 135.5t-109.5 52.5q-103 0 -166 -95h-55l78 365h380l-11 -50h-327l-51 -244q75 75 180 75q51 0 88 -20t54 -53.5t22.5 -76.5t-6.5 -89q-22 -100 -98.5 -175.5t-185.5 -75.5z " />
<glyph unicode="6" horiz-adv-x="562" d="M219 -14q-113 0 -156 91q-39 85 -4 257q16 75 47 152q45 109 114 166t153 57q81 0 117 -42q39 -44 39 -118l-59 -8q-2 54 -29 87.5t-77 33.5q-77 0 -139 -71q-68 -78 -111 -269q84 122 214 122q80 0 128.5 -59.5t27.5 -160.5q-21 -97 -93.5 -167.5t-171.5 -70.5zM305 393 q-69 0 -124 -51t-72 -128t17 -128t103 -51t124 51t72 128t-17 128t-103 51z" />
<glyph unicode="7" horiz-adv-x="529" d="M468 649h-374l11 50h437l-12 -55l-445 -644h-67z" />
<glyph unicode="8" horiz-adv-x="566" d="M207 -11q-108 0 -157 55t-29 148q13 59 58.5 109t113.5 71q-107 36 -82 159q19 85 86 133t164 48q98 0 144.5 -48t27.5 -133q-11 -56 -48.5 -98t-101.5 -61q60 -21 84.5 -71t11.5 -109q-20 -94 -91.5 -148.5t-180.5 -54.5zM351 665q-66 0 -116 -36.5t-63 -97.5t21.5 -98 t100.5 -37t116 37t63 98t-21.5 97.5t-100.5 36.5zM284 350q-75 0 -131 -43t-72 -114q-15 -71 23 -114t113 -43t131 43t71 114q16 71 -22 114t-113 43z" />
<glyph unicode="9" horiz-adv-x="567" d="M461 212q-44 -108 -113.5 -165t-152.5 -57q-79 0 -118 42q-31 38 -36 91h62q19 -86 101 -86q79 0 139 71q67 77 113 274q-84 -122 -214 -122q-81 0 -129.5 58.5t-27.5 159.5q21 97 92.5 166t171.5 69q112 0 156 -91q41 -85 4 -257q-19 -84 -48 -153zM339 663 q-70 0 -124 -49t-71 -126t17 -127t104 -50q69 0 123.5 50t71.5 127t-17 126t-104 49z" />
<glyph unicode=":" horiz-adv-x="212" d="M50 234l18 82h64l-18 -82h-64zM0 0l18 82h64l-18 -82h-64z" />
<glyph unicode=";" horiz-adv-x="213" d="M50 234l18 82h64l-18 -82h-64zM74 41q-13 -64 -25 -93t-43 -78h-16q33 63 46 130h-36l18 82h65z" />
<glyph unicode="&#x3c;" horiz-adv-x="547" d="M59 356l483 235l-12 -58l-416 -200l331 -199l-12 -58l-384 233z" />
<glyph unicode="=" horiz-adv-x="616" d="M68 397l12 57h502l-12 -57h-502zM30 217l12 58h502l-12 -58h-502z" />
<glyph unicode="&#x3e;" horiz-adv-x="547" d="M12 133l415 199l-330 200l12 58l383 -235l-10 -47l-483 -233z" />
<glyph unicode="?" horiz-adv-x="573" d="M540 516q-19 -89 -84 -143t-141 -54l-35 -167h-57l44 210h17q48 0 85.5 14.5t60 39t35 48.5t17.5 49q16 73 -20 112.5t-102 39.5q-51 0 -93.5 -26.5t-67.5 -73.5q-18 -31 -26 -70l-57 1q23 97 84 152q74 64 171 64q93 0 141 -52t28 -144zM189 0l15 70h58l-15 -70h-58z " />
<glyph unicode="@" horiz-adv-x="839" d="M799 427q-25 -124 -107 -231q-93 -122 -180 -122q-32 0 -48 18t-14 51q-68 -68 -145 -68q-55 0 -87.5 40.5t-16.5 115.5q26 122 102 202t166 80q41 0 66 -20.5t31 -53.5l21 53h50l-60 -142q-59 -138 -67 -179q-11 -54 26 -54q53 0 126.5 98t97.5 211q25 118 -27.5 186 t-168.5 68q-104 0 -208 -61.5t-180 -164.5t-101 -220q-16 -90 -3 -152t54.5 -101t92.5 -56t111 -17q177 0 354 148l5 4l15 -31l-3 -3q-185 -153 -376 -153q-37 0 -73.5 7t-76.5 23.5t-70 43.5t-53.5 67t-27.5 95t9 126q19 88 68.5 173.5t119.5 154t164 111t192 42.5 q130 0 190 -78.5t32 -210.5zM526 350q11 47 -4.5 86t-64.5 39q-70 0 -127.5 -77.5t-75.5 -162.5q-8 -33 -3.5 -55t11.5 -35t20 -19.5t21.5 -8.5t15.5 -2q65 0 125.5 72t81.5 163z" />
<glyph unicode="A" horiz-adv-x="603" d="M421 225h-288l-126 -225h-62l398 699h77l90 -699h-62zM369 648l-210 -377h257z" />
<glyph unicode="B" horiz-adv-x="657" d="M459 699q91 0 137.5 -43.5t27.5 -131.5q-28 -129 -168 -156q80 -15 107.5 -57t10.5 -120q-21 -98 -91.5 -144.5t-171.5 -46.5h-295l149 699h294zM384 389q68 0 116 32t62 99q14 66 -20 98t-102 32h-227l-56 -261h227zM307 49q179 0 210 147q17 78 -24.5 112.5 t-123.5 34.5h-222l-62 -294h222z" />
<glyph unicode="C" horiz-adv-x="738" d="M671 518q-6 68 -59 109.5t-142 41.5q-131 0 -227.5 -94t-124.5 -225q-18 -85 -1 -156.5t72.5 -117.5t141.5 -46q84 0 156.5 41.5t113.5 109.5h60q-53 -91 -145 -146t-198 -55q-97 0 -164.5 51.5t-92 136t-3.5 181.5q33 156 148.5 263t275.5 107q109 0 177.5 -56 t71.5 -145h-60z" />
<glyph unicode="D" horiz-adv-x="726" d="M16 0l149 699h202q189 0 262.5 -84.5t35.5 -264.5q-39 -183 -143 -266.5t-304 -83.5h-202zM214 651l-129 -604h117q190 0 278.5 68t124.5 235t-24 234t-250 67h-117z" />
<glyph unicode="E" horiz-adv-x="599" d="M86 48h395l-11 -48h-454l149 699h442l-10 -49h-383l-57 -265h333l-10 -49h-333z" />
<glyph unicode="F" horiz-adv-x="550" d="M561 650h-347l-57 -265h323l-10 -49h-323l-72 -336h-59l149 699h406z" />
<glyph unicode="G" horiz-adv-x="798" d="M322 -20q-104 0 -173 52t-91.5 135.5t-1.5 182.5q33 157 144.5 263t279.5 106q108 0 174.5 -51t76.5 -150h-60q-12 75 -64 113t-136 38q-133 0 -229 -87.5t-126 -230.5q-31 -145 28.5 -233t188.5 -88q125 0 213.5 80t113.5 199h-223l11 50h283l-2 -7q-34 -164 -142 -268 t-265 -104z" />
<glyph unicode="H" horiz-adv-x="708" d="M634 699h59l-149 -699h-59l72 337h-411l-72 -337h-58l149 699h58l-67 -313h411z" />
<glyph unicode="I" horiz-adv-x="239" d="M165 699h59l-149 -699h-59z" />
<glyph unicode="J" horiz-adv-x="366" d="M28 -11q-42 0 -74 11l11 49q31 -12 61 -12q80 0 111.5 40.5t49.5 126.5l105 495h59l-109 -515q-43 -195 -214 -195z" />
<glyph unicode="K" horiz-adv-x="609" d="M642 699l-322 -284l192 -415h-70l-171 370l-146 -125l-52 -245h-57l149 699h57l-83 -389l439 389h64z" />
<glyph unicode="L" horiz-adv-x="532" d="M86 48h346l-11 -48h-405l149 699h59z" />
<glyph unicode="M" horiz-adv-x="850" d="M767 699h68l-149 -699h-57l131 612l-400 -563l-160 564l-131 -613h-53l149 699h73l151 -533z" />
<glyph unicode="N" horiz-adv-x="719" d="M555 0h-70l-282 615l-131 -615h-56l149 699h68l283 -617l131 617h57z" />
<glyph unicode="O" horiz-adv-x="785" d="M315 -20q-141 0 -217 106t-42 264q35 164 147.5 266t268.5 102q141 0 217 -104.5t42 -263.5q-35 -164 -149.5 -267t-266.5 -103zM462 670q-125 0 -220.5 -88.5t-125.5 -231.5q-31 -143 27 -232.5t182 -89.5t219.5 89t126.5 233q30 143 -27.5 231.5t-181.5 88.5z" />
<glyph unicode="P" horiz-adv-x="612" d="M423 699q92 0 138 -63t27 -155q-20 -92 -93 -155t-165 -63h-200l-56 -263h-58l149 699h258zM340 313q72 0 126.5 47.5t69.5 119.5q16 72 -19 120.5t-106 48.5h-199l-71 -336h199z" />
<glyph unicode="Q" horiz-adv-x="785" d="M731 350q-34 -161 -153 -267l47 -83h-61l-28 50q-103 -70 -221 -70q-147 0 -220 104t-39 266q34 161 151.5 264.5t264.5 103.5t220 -103.5t39 -264.5zM325 28q103 0 188 62l-66 115h61l45 -79q87 84 118 224q30 143 -27.5 231.5t-181.5 88.5q-125 0 -220.5 -88.5 t-125.5 -231.5q-31 -143 27 -232.5t182 -89.5z" />
<glyph unicode="R" horiz-adv-x="618" d="M427 699q93 0 140 -61.5t27 -155.5q-18 -83 -79.5 -141t-148.5 -73l153 -268h-72l-150 266h-166l-57 -266h-58l149 699h262zM337 316q73 0 127 46.5t70 120.5q16 72 -17 118.5t-110 46.5h-195l-70 -332h195z" />
<glyph unicode="S" horiz-adv-x="649" d="M258 -20q-121 0 -179 56.5t-44 168.5h60q-12 -82 33.5 -128.5t146.5 -46.5q190 0 224 158q12 56 -13 86.5t-107 50.5l-104 26q-90 23 -123 65.5t-18 111.5q18 87 89 139t188 52q101 0 158 -43t51 -140h-58q5 69 -37.5 102t-124.5 33q-87 0 -140 -36t-67 -103 q-12 -55 14.5 -84t97.5 -47l103 -26q97 -24 131.5 -69t18.5 -120q-21 -100 -101 -153t-199 -53z" />
<glyph unicode="T" horiz-adv-x="521" d="M216 0h-58l139 650h-208l10 49h473l-10 -49h-207z" />
<glyph unicode="U" horiz-adv-x="670" d="M257 -20q-123 0 -169.5 66t-15.5 215l93 438h58l-92 -434q-27 -126 4.5 -181.5t131.5 -55.5q99 0 155 55.5t83 181.5l92 434h58l-93 -438q-31 -149 -106.5 -215t-198.5 -66z" />
<glyph unicode="V" horiz-adv-x="566" d="M562 699h60l-377 -699h-68l-79 699h60l67 -635z" />
<glyph unicode="W" horiz-adv-x="952" d="M583 699l58 -643l311 643h58l-350 -699h-66l-56 642l-326 -642h-67l-53 699h60l40 -644l326 644h65z" />
<glyph unicode="X" horiz-adv-x="550" d="M584 699l-273 -332l145 -367h-67l-121 315l-257 -315h-65l300 367l-133 332h69l110 -282l226 282h66z" />
<glyph unicode="Y" horiz-adv-x="562" d="M303 323l-69 -323h-59l69 323l-149 376h69l122 -316l260 316h71z" />
<glyph unicode="Z" horiz-adv-x="590" d="M593 652q-356 -402 -537 -605h418l-10 -47h-496l9 41l544 609h-379l10 49h451z" />
<glyph unicode="[" horiz-adv-x="389" d="M16 -60l171 806h231l-8 -38h-178l-155 -730h178l-8 -38h-231z" />
<glyph unicode="\" horiz-adv-x="503" d="M348 -97l-238 897h47l238 -897h-47z" />
<glyph unicode="]" horiz-adv-x="389" d="M-30 -60l8 38h178l155 730h-178l8 38h231l-171 -806h-231z" />
<glyph unicode="^" horiz-adv-x="506" d="M315 643l-154 -163h-76l210 219h67l115 -219h-74z" />
<glyph unicode="_" horiz-adv-x="593" d="M-100 -126l10 48h593l-10 -48h-593z" />
<glyph unicode="`" horiz-adv-x="231" d="M183 575l-55 106h81l14 -106h-40z" />
<glyph unicode="a" horiz-adv-x="529" d="M300 506q96 0 129.5 -41.5t11.5 -145.5l-68 -319h-56l14 66q-72 -81 -192 -81q-79 0 -113.5 37t-20.5 103q7 32 24 57t35 39.5t49.5 26.5t52.5 17.5t58 13.5q9 2 14 3q106 23 148 42q16 82 -4.5 110t-90.5 28q-65 0 -99 -19t-50 -60h-55q40 123 213 123zM157 27 q75 0 129 40.5t69 109.5l23 106q-46 -20 -126 -35q-35 -7 -53 -11.5t-46 -14.5t-43 -21.5t-29.5 -31t-19.5 -45.5q-10 -46 13.5 -71.5t82.5 -25.5z" />
<glyph unicode="b" d="M503 245q-22 -106 -95 -182.5t-174 -76.5q-116 0 -149 86l-16 -72h-56l149 699h56l-63 -297q78 102 194 102q66 0 107.5 -39t49.5 -96.5t-3 -123.5zM447 245q9 52 5 99t-36 79.5t-86 32.5q-81 0 -137.5 -62.5t-74.5 -148.5q-8 -54 -3.5 -100.5t37.5 -78.5t89 -32 q81 0 134.5 63t71.5 148z" />
<glyph unicode="c" horiz-adv-x="508" d="M410 106q-79 -120 -215 -120q-111 0 -151 73.5t-16 186.5q23 113 94.5 186.5t183.5 73.5q132 0 161 -112h-59q-22 66 -110 66q-87 0 -141 -63t-72 -151q-10 -39 -8 -77t13.5 -68.5t41.5 -49.5t75 -19q90 0 144 74h59z" />
<glyph unicode="d" d="M381 86q-75 -100 -197 -100q-68 0 -110.5 38t-51 95.5t2.5 125.5q22 102 96.5 180.5t171.5 78.5q118 0 150 -94l61 289h56l-149 -699h-49zM410 245q18 86 -11.5 148.5t-111.5 62.5q-80 0 -133.5 -63t-72.5 -148q-10 -37 -7 -75t14 -68t39.5 -49t70.5 -19q82 0 138.5 63 t73.5 148z" />
<glyph unicode="e" horiz-adv-x="509" d="M80 246q-21 -99 5.5 -158t113.5 -59q103 0 149 81h55q-75 -125 -218 -125q-55 0 -93.5 21t-55 57t-20.5 83t9 98q24 111 92.5 185.5t176.5 74.5q72 0 112 -37t44 -94t-8 -127h-362zM393 286q14 80 -13.5 126t-96.5 46q-73 0 -122 -48.5t-71 -123.5h303z" />
<glyph unicode="f" horiz-adv-x="312" d="M345 653q-18 7 -40 7q-43 0 -63.5 -19t-30.5 -66l-18 -85h103l-10 -47h-103l-95 -443h-56l95 443h-79l10 47h78l18 89q28 127 147 127q30 0 54 -7z" />
<glyph unicode="g" d="M416 23q-25 -116 -63 -165q-70 -91 -199 -91q-83 0 -130 42.5t-37 124.5h57q-6 -120 123 -120q78 0 124 43q16 15 28 34.5t20.5 46.5t13 45t11 51t8.5 43q-74 -92 -186 -92q-52 0 -89.5 22t-55 58.5t-23 83t6.5 94.5q22 105 96 183.5t179 78.5q118 0 147 -102l19 87h50z M410 245q9 54 4 101t-38 78.5t-88 31.5q-81 0 -134.5 -63t-72.5 -148q-10 -37 -7 -75t14 -68.5t40 -49.5t71 -19q81 0 137.5 63.5t73.5 148.5z" />
<glyph unicode="h" horiz-adv-x="545" d="M396 296q8 46 10 83t-19.5 60.5t-67.5 23.5q-59 0 -103 -34.5t-67 -88.5q-14 -31 -28 -97l-52 -243h-56l149 699h56l-61 -288q71 94 182 94q62 0 92.5 -26.5t31.5 -72t-10 -105.5l-64 -301h-56z" />
<glyph unicode="i" horiz-adv-x="230" d="M136 618l17 81h74l-17 -81h-74zM13 0l105 490h56l-105 -490h-56z" />
<glyph unicode="j" horiz-adv-x="227" d="M133 618l17 81h74l-17 -81h-74zM42 -116q-26 -118 -129 -118q-19 0 -39 3l9 43q14 -2 22 -2q30 0 48 15t24.5 32.5t12.5 48.5l125 584h56z" />
<glyph unicode="k" horiz-adv-x="459" d="M466 490l-274 -226l175 -264h-68l-175 255l-55 -255h-56l149 699h56l-93 -438l279 229h62z" />
<glyph unicode="l" horiz-adv-x="266" d="M123 -3q-60 0 -78.5 30t-5.5 93l123 579h56l-123 -577q-10 -47 0.5 -62t54.5 -15l-10 -48h-17z" />
<glyph unicode="m" horiz-adv-x="833" d="M682 286q22 98 6 132q-22 45 -79 45q-68 0 -113 -50t-61 -122l-62 -291h-56l61 286q22 98 6 132q-20 45 -79 45q-51 0 -91.5 -31.5t-62.5 -82.5q-13 -29 -30 -104l-52 -245h-56l105 490h56l-17 -80q65 95 173 95q52 0 84 -25.5t36 -73.5q66 99 184 99q51 0 83 -26t36 -75 q2 -37 -14 -113l-62 -291h-56z" />
<glyph unicode="n" horiz-adv-x="545" d="M396 296q8 46 10 83t-19.5 60.5t-67.5 23.5q-59 0 -103 -34.5t-67 -88.5q-14 -31 -28 -97l-52 -243h-56l105 490h56l-17 -79q71 94 182 94q62 0 92.5 -26.5t31.5 -72t-10 -105.5l-64 -301h-56z" />
<glyph unicode="o" horiz-adv-x="535" d="M467 246q-24 -112 -96 -186.5t-180 -74.5t-148.5 74.5t-16.5 186.5q23 112 95.5 185.5t180.5 73.5q73 0 117 -36.5t52 -94t-4 -128.5zM408 245q9 42 9 78.5t-10.5 68.5t-39.5 50.5t-74 18.5q-86 0 -138 -62.5t-72 -155.5q-9 -54 -7.5 -101.5t33.5 -80t92 -32.5 q87 0 137.5 62t69.5 154z" />
<glyph unicode="p" d="M504 246q-16 -77 -60 -141t-114 -96q-48 -23 -96 -23q-123 0 -154 98l-65 -309h-49l152 715h49l-21 -97q80 111 203 111q52 0 90 -26q50 -34 66 -100t-1 -132zM448 246q10 37 6.5 74.5t-14.5 67.5t-40 49t-70 19q-81 0 -137.5 -62.5t-73.5 -147.5q-9 -54 -4 -101 t37.5 -79t88.5 -32q81 0 134.5 63t72.5 149z" />
<glyph unicode="q" d="M381 88q-77 -101 -197 -101q-101 0 -141 75t-17 184q15 73 57.5 135.5t108.5 96.5q51 27 101 27q124 0 155 -103l19 88h49l-152 -715h-49zM411 246q18 86 -11.5 148.5t-111.5 62.5q-80 0 -134 -63t-72 -148q-9 -53 -6 -99.5t35 -79t87 -32.5q82 0 138.5 62.5t74.5 148.5z " />
<glyph unicode="r" horiz-adv-x="325" d="M323 440q-6 1 -19 1q-84 0 -141 -74q-29 -39 -50 -133l-50 -234h-50l105 490h50l-20 -94q61 99 175 99q2 0 5.5 -0.5t5.5 -0.5z" />
<glyph unicode="s" horiz-adv-x="467" d="M379 132q-15 -74 -77.5 -110.5t-143.5 -36.5q-75 0 -120 33t-39 101h60q-1 -47 31.5 -66.5t82.5 -19.5q61 0 101 25.5t50 69.5q5 25 -1.5 43t-28 29.5t-39 17t-51.5 13.5q-17 4 -23.5 6t-22 6t-22.5 7t-19.5 8.5t-18.5 11t-14.5 13t-12 16t-6.5 19.5t-2.5 23.5t3.5 27.5 q15 70 73 103t131 33q75 0 115 -33t36 -94h-60q0 80 -99 80q-57 0 -95 -23.5t-47 -64.5q-5 -23 1.5 -39.5t27.5 -27.5t37.5 -16t50.5 -13l24 -6t23 -6t23 -7.5t20.5 -9t18.5 -11t15 -13.5t12.5 -17t6.5 -19.5t2.5 -24t-3.5 -28.5z" />
<glyph unicode="t" horiz-adv-x="294" d="M112 119q-11 -37 -1.5 -58t48.5 -21q11 0 17 1l-9 -43q-15 -3 -30 -3q-60 0 -77.5 29.5t-4.5 92.5l70 326h-77l10 47h77l31 148h56l-31 -148h97l-10 -47h-97z" />
<glyph unicode="u" horiz-adv-x="545" d="M346 79q-70 -94 -182 -94q-53 0 -88.5 26t-37.5 75q-3 37 13 113l62 291h56l-63 -296q-19 -89 1 -127t81 -38q55 0 99 33.5t66 87.5q14 31 28 97l52 243h56l-105 -490h-56z" />
<glyph unicode="v" horiz-adv-x="435" d="M119 0l-71 490h60l56 -410l229 410h56l-278 -490h-52z" />
<glyph unicode="w" horiz-adv-x="707" d="M363 490h47l42 -416l216 416h53l-263 -490h-49l-45 406l-220 -406h-50l-46 490h58l33 -416z" />
<glyph unicode="x" horiz-adv-x="450" d="M385 490h58l-208 -237l109 -253h-60l-89 212l-179 -212h-58l217 253l-103 237l59 -1l84 -195z" />
<glyph unicode="y" horiz-adv-x="463" d="M477 490l-350 -602q-71 -120 -163 -120q-22 0 -37 4l14 46q16 -4 28 -4q41 0 64 22t49 69l59 100l-93 485h58l75 -411l240 411h56z" />
<glyph unicode="z" horiz-adv-x="452" d="M333 46l-10 -46h-342l10 44l349 400h-248l10 46h320l-8 -37l-356 -407h275z" />
<glyph unicode="{" horiz-adv-x="286" d="M161 -114q-38 1 -62 12.5t-35.5 27t-13.5 43t1.5 52t11.5 62.5l18 86q18 82 14 111q-7 44 -50 55l4 22q12 3 22.5 8t18.5 10t16 15t12.5 15t10 19t8 19t6.5 21t5 19.5t5 21.5t4 19l18 86q10 48 20 77t29.5 59t52 44.5t80.5 16.5l-4 -17q-30 -6 -50.5 -19.5t-33 -37 t-18.5 -42.5t-13 -51l-24 -113q-16 -78 -43.5 -120t-96.5 -61q32 -10 50 -26.5t22 -42t2 -49t-10 -62.5l-25 -114q-5 -26 -7.5 -41t-2.5 -36t6 -33.5t20 -23.5t36 -16z" />
<glyph unicode="|" horiz-adv-x="200" d="M-25 -112l174 821h56l-174 -821h-56z" />
<glyph unicode="}" horiz-adv-x="286" d="M237 335q-12 -3 -22.5 -8t-18.5 -10t-15.5 -14.5t-12.5 -15.5t-10.5 -19t-8 -18.5t-6.5 -21t-5 -19.5t-4.5 -21t-4.5 -19l-18 -86q-10 -48 -20 -77t-29.5 -59t-52 -44.5t-80.5 -16.5l4 16q30 6 50.5 20t32.5 36.5t18.5 42t12.5 51.5l25 114q11 52 22 81.5t40 57.5t77 41 q-32 10 -49.5 26.5t-21.5 42.5t-2 49.5t10 62.5l24 113q6 25 8.5 41t2.5 36.5t-6 33t-20 23.5t-36 16l4 17q62 -2 88.5 -29t23 -70t-13.5 -98l-18 -86q-18 -82 -14 -111q6 -45 50 -56z" />
<glyph unicode="~" horiz-adv-x="534" d="M478 352q-59 -85 -127 -85q-27 0 -54.5 13.5t-46 30t-40.5 30t-40 13.5q-31 0 -54.5 -19t-49.5 -53l-15 38q60 84 127 84q34 0 68 -21.5t63 -43t51 -21.5q30 0 53.5 18.5t49.5 52.5z" />
<glyph unicode="&#xa1;" horiz-adv-x="295" d="M136 428l15 68h58l-15 -68h-58zM60 77q6 31 26 94l51 174h23l-24 -174q-10 -68 -15 -93l-60 -280h-61z" />
<glyph unicode="&#xa2;" horiz-adv-x="586" d="M448 105q-75 -111 -197 -119l-15 -73h-40l15 73q-97 7 -132.5 79.5t-13.5 179.5q23 108 89.5 180.5t167.5 79.5l15 72h40l-15 -72q114 -9 143 -112h-57q-26 63 -95 72l-93 -439q78 9 131 79h57zM313 465q-74 -8 -123.5 -72.5t-67.5 -147.5q-8 -51 -6 -97.5t29 -81 t75 -40.5z" />
<glyph unicode="&#xa3;" horiz-adv-x="588" d="M535 585q-23 39 -52 57.5t-76 18.5q-74 0 -117 -50.5t-59 -128.5l-26 -123h239l-10 -48h-239l-56 -263h311l-11 -48h-451l11 48h79l56 263h-79l10 48h79l26 123q21 99 85.5 163.5t161.5 64.5q62 0 101 -21.5t66 -69.5z" />
<glyph unicode="&#xa5;" horiz-adv-x="578" d="M183 0l36 166h-161l9 42h161l16 75h-161l9 43h160l-149 373h69l123 -315l259 315h71l-312 -373h166l-9 -43h-167l-16 -75h167l-9 -42h-167l-36 -166h-59z" />
<glyph unicode="&#xa6;" horiz-adv-x="220" d="M90 359l74 350h46l-74 -350h-46zM-10 -112l74 351h46l-74 -351h-46z" />
<glyph unicode="&#xa7;" horiz-adv-x="517" d="M440 347q-9 -40 -42 -69t-76 -42l2 -1q39 -12 55.5 -42.5t7.5 -73.5q-14 -64 -75 -99t-129 -35q-70 0 -110 26t-37 89h55q1 -73 101 -73q46 0 87 21t50 64q1 17 2.5 28t-6 21t-12 15.5t-17.5 11.5t-22 9l-24 8l-60 18q-28 9 -45.5 16.5t-35 21.5t-23 35t0.5 49 q9 40 41.5 69t76.5 42l-2 1q-39 13 -55.5 43t-7.5 73q14 65 75 99.5t129 34.5q70 0 110 -25.5t37 -88.5h-55q0 72 -101 72q-46 0 -87 -21t-50 -64q-1 -17 -2.5 -28t6 -21t12 -15.5t17.5 -11.5t22 -9l24 -8l60 -18q28 -9 45.5 -16.5t35 -21.5t23 -35t-0.5 -49zM383 339 q12 53 -52 74q-56 20 -84 29q-38 -8 -67 -31t-37 -58q-11 -53 53 -74q14 -5 42 -14.5t42 -14.5q37 8 66.5 31.5t36.5 57.5z" />
<glyph unicode="&#xa8;" horiz-adv-x="387" d="M111 600l17 81h74l-17 -81h-74zM310 600l17 81h74l-17 -81h-74z" />
<glyph unicode="&#xa9;" horiz-adv-x="785" d="M729 353q-31 -144 -150.5 -251.5t-261.5 -107.5t-216 106t-43 249q31 145 150.5 252t262.5 107q93 0 160 -50t92.5 -131t5.5 -174zM692 351q28 130 -36.5 224.5t-192.5 94.5q-129 0 -234.5 -94.5t-133.5 -224.5t36.5 -225t193.5 -95t234 94.5t133 225.5zM534 425 q-10 36 -38 57t-67 21q-61 0 -109 -44t-61 -106q-13 -61 16.5 -106.5t90.5 -45.5q40 0 76.5 21t61.5 57h56q-32 -57 -88 -91t-117 -34q-83 0 -125 57t-24 140q18 84 84 141.5t150 57.5q61 0 102.5 -34t49.5 -91h-58z" />
<glyph unicode="&#xaa;" horiz-adv-x="302" d="M248 452q-39 -37 -104 -37q-40 0 -62 21t-13 60q9 44 43 64.5t92.5 32t79.5 20.5q8 38 -3 52.5t-50 14.5q-65 0 -79 -44h-38q23 76 123 76q52 0 75 -19.5t12 -69.5l-43 -200h-39zM276 581q-24 -11 -80 -23q-78 -14 -87 -58q-12 -55 52 -55q37 0 66 20t36 56z" />
<glyph unicode="&#xab;" horiz-adv-x="486" d="M211 436h54l-180 -219l87 -217h-54l-88 217zM372 436h56l-181 -219l88 -217h-56l-87 217z" />
<glyph unicode="&#xac;" horiz-adv-x="581" d="M31 225l13 59h467l-61 -284h-60l48 225h-407z" />
<glyph unicode="&#xad;" horiz-adv-x="406" d="M41 307l12 58h308l-12 -58h-308z" />
<glyph unicode="&#xae;" horiz-adv-x="508" d="M481 487q-18 -84 -88.5 -147.5t-154.5 -63.5q-83 0 -126.5 62t-25.5 146q18 85 88 148t154 63q83 0 127 -62t26 -146zM453 485q15 74 -21.5 127.5t-109.5 53.5t-133 -53.5t-75 -127.5q-16 -74 20.5 -127.5t109.5 -53.5t133 53.5t76 127.5zM322 595q27 0 41.5 -17.5 t9.5 -44.5q-5 -21 -20 -37t-37 -21l44 -71h-35l-41 67h-38l-15 -67h-27l41 191h77zM346 533q3 16 -5.5 26t-24.5 10h-50l-15 -72h50q16 0 28.5 10t16.5 26z" />
<glyph unicode="&#xaf;" horiz-adv-x="393" d="M113 608l10 51h279l-10 -51h-279z" />
<glyph unicode="&#xb0;" horiz-adv-x="349" d="M345 594q-11 -49 -52 -83t-90 -34t-76 34t-17 83t52 83.5t91 34.5t75.5 -34.5t16.5 -83.5zM313 594q8 36 -11.5 62t-55.5 26t-66 -26t-38 -62t11.5 -62t55.5 -26t66 26t38 62z" />
<glyph unicode="&#xb1;" horiz-adv-x="598" d="M381 610l-46 -215h216l-12 -58h-216l-46 -215h-54l46 215h-213l12 58h213l46 215h54zM-17 0l13 58h483l-13 -58h-483z" />
<glyph unicode="&#xb2;" horiz-adv-x="323" d="M41 342q81 58 141 108q86 73 99 136q8 35 -7.5 57.5t-49.5 22.5q-64 0 -85 -65h-43q15 49 51.5 76t85.5 27q52 0 77 -32t14 -84q-11 -53 -45 -93t-94 -88q-39 -32 -77 -59h170l-8 -38h-236z" />
<glyph unicode="&#xb3;" horiz-adv-x="337" d="M309 424q-12 -53 -52.5 -86t-95.5 -33q-82 0 -115 61l36 32q29 -55 88 -55q38 0 63 23.5t32 56.5q8 37 -13 55.5t-70 18.5h-32l6 30l144 133h-178l8 39h233l-7 -34l-141 -130q56 -4 80.5 -32.5t13.5 -78.5z" />
<glyph unicode="&#xb4;" horiz-adv-x="231" d="M146 575h-40l59 106h80z" />
<glyph unicode="&#xb5;" horiz-adv-x="750" d="M418 206q-21 -97 -56 -141q-59 -73 -169 -73q-81 0 -115 47l-53 -250l-57 -2l150 703h57l-60 -278q-1 -5 -5 -24.5t-5.5 -28t-3 -24t0.5 -27.5t7 -22q20 -48 94 -48q71 0 114 48q28 34 46 126l60 278h56z" />
<glyph unicode="&#xb6;" horiz-adv-x="498" d="M178 344q-37 6 -60 16.5t-39 34.5q-31 47 -16 121q15 69 58 114q39 39 81 54t97 15h194l-8 -38h-32l-156 -735h-47l156 735h-114l-156 -735h-47z" />
<glyph unicode="&#xb7;" horiz-adv-x="238" d="M80 313l17 82h64l-17 -82h-64z" />
<glyph unicode="&#xb8;" horiz-adv-x="297" d="M139 -127q-8 -38 -39.5 -61t-70.5 -23q-53 0 -83 34l30 26q24 -26 61 -26q23 0 41 13t23 35q4 18 -2.5 29t-23 15t-27.5 5t-31 1l5 23l63 56h42l-63 -53q43 -6 63.5 -20.5t11.5 -53.5z" />
<glyph unicode="&#xb9;" horiz-adv-x="236" d="M101 629q46 1 70 17t38 53h29l-82 -388h-43l61 288h-79z" />
<glyph unicode="&#xba;" horiz-adv-x="328" d="M338 568q-14 -64 -55.5 -106.5t-103.5 -42.5t-85.5 42.5t-9.5 106.5t55.5 106.5t103.5 42.5q63 0 86 -42t9 -107zM298 568q5 30 4.5 56.5t-17 45t-48.5 18.5q-46 0 -74.5 -35t-38.5 -85q-5 -30 -4.5 -56.5t17.5 -45t49 -18.5q47 0 74 35t38 85z" />
<glyph unicode="&#xbb;" horiz-adv-x="486" d="M185 217l-89 219h56l88 -219l-181 -217h-56zM347 217l-88 219h54l89 -219l-182 -217h-54z" />
<glyph unicode="&#xbc;" horiz-adv-x="660" d="M96 0h-39l435 699h39zM101 629q46 1 70 17t38 53h29l-82 -388h-43l61 288h-79zM509 134h53l-8 -38h-53l-21 -96h-43l21 96h-167l7 33l230 259h35zM466 134l38 177l-157 -177h119z" />
<glyph unicode="&#xbd;" horiz-adv-x="691" d="M95 0h-39l435 699h39zM101 629q46 1 70 17t38 53h29l-82 -388h-43l61 288h-79zM337 33q78 54 140 107q84 71 98 136q7 36 -8.5 58t-47.5 22q-64 0 -86 -65h-43q13 43 45 70q39 33 93 33q56 0 78.5 -34.5t12.5 -81.5q-18 -84 -123 -168q-13 -10 -17 -13q-40 -33 -75 -59 h169l-9 -38h-236l7 31z" />
<glyph unicode="&#xbe;" horiz-adv-x="743" d="M309 424q-12 -53 -52.5 -86t-95.5 -33q-82 0 -115 61l36 32q29 -55 88 -55q38 0 63 23.5t32 56.5q8 37 -13 55.5t-70 18.5h-32l6 30l144 133h-178l8 39h233l-7 -34l-141 -130q56 -4 80.5 -32.5t13.5 -78.5zM185 0h-39l435 699h39zM598 134h53l-8 -38h-53l-21 -96h-43 l21 96h-167l8 33l229 259h35zM555 134l38 177l-157 -177h119z" />
<glyph unicode="&#xbf;" horiz-adv-x="499" d="M237 426l15 70h58l-15 -70h-58zM384 1q-24 -99 -90.5 -158t-163.5 -59q-94 0 -142.5 52t-28.5 144q18 83 81 140.5t144 57.5l36 166h58l-45 -209h-17q-75 0 -129.5 -39.5t-69.5 -112.5q-15 -69 19.5 -110.5t103.5 -41.5q72 0 121.5 48.5t65.5 121.5h57z" />
<glyph unicode="&#xc0;" horiz-adv-x="603" d="M385 754l-55 106h81l14 -106h-40zM421 225h-288l-126 -225h-62l398 699h77l90 -699h-62zM369 648l-210 -377h257z" />
<glyph unicode="&#xc1;" horiz-adv-x="603" d="M399 754h-40l59 106h80zM421 225h-288l-126 -225h-62l398 699h77l90 -699h-62zM369 648l-210 -377h257z" />
<glyph unicode="&#xc2;" horiz-adv-x="603" d="M408 830l-78 -81h-56l110 111h58l66 -111h-57zM421 225h-288l-126 -225h-62l398 699h77l90 -699h-62zM369 648l-210 -377h257z" />
<glyph unicode="&#xc3;" horiz-adv-x="603" d="M560 839q-40 -79 -99 -79q-21 0 -57.5 16t-55.5 16q-34 0 -55 -36h-39l1 2q19 39 42 60t58 21q21 0 58 -16t55 -16q34 0 52 33zM421 225h-288l-126 -225h-62l398 699h77l90 -699h-62zM369 648l-210 -377h257z" />
<glyph unicode="&#xc4;" horiz-adv-x="603" d="M276 759l17 81h74l-17 -81h-74zM435 759l17 81h74l-17 -81h-74zM421 225h-288l-126 -225h-62l398 699h77l90 -699h-62zM369 648l-210 -377h257z" />
<glyph unicode="&#xc5;" horiz-adv-x="603" d="M495 816q-7 -36 -40 -61.5t-69 -25.5t-57.5 25t-13.5 61q7 36 39.5 61.5t68.5 25.5t57.5 -25t14.5 -61zM462 815q5 24 -8 41t-37 17q-23 0 -44 -17t-25 -40q-5 -23 8.5 -40t36.5 -17t43.5 16.5t25.5 39.5zM421 225h-288l-126 -225h-62l398 699h77l90 -699h-62zM369 648 l-210 -377h257z" />
<glyph unicode="&#xc6;" horiz-adv-x="937" d="M519 385h308l-10 -49h-308l-61 -288h371l-11 -48h-429l48 225h-238l-181 -225h-62l570 699h428l-10 -48h-358zM513 628l-287 -357h211z" />
<glyph unicode="&#xc7;" horiz-adv-x="738" d="M661 181q-53 -91 -145 -146t-198 -55l-39 -33q43 -6 63.5 -20.5t11.5 -53.5q-8 -38 -39.5 -61t-70.5 -23q-53 0 -83 34l30 26q24 -26 61 -26q23 0 41 13t23 35q4 18 -2.5 29t-23 15t-27.5 5t-31 1l5 23l43 38q-127 15 -189.5 121.5t-32.5 245.5q33 156 148.5 263 t275.5 107q109 0 177.5 -56t71.5 -145h-60q-6 68 -59 109.5t-142 41.5q-131 0 -227.5 -94t-124.5 -225q-18 -85 -1 -156.5t72.5 -117.5t141.5 -46q84 0 156.5 41.5t113.5 109.5h60z" />
<glyph unicode="&#xc8;" horiz-adv-x="599" d="M390 754l-55 106h81l14 -106h-40zM86 48h395l-11 -48h-454l149 699h442l-10 -49h-383l-57 -265h333l-10 -49h-333z" />
<glyph unicode="&#xc9;" horiz-adv-x="599" d="M404 754h-40l59 106h80zM86 48h395l-11 -48h-454l149 699h442l-10 -49h-383l-57 -265h333l-10 -49h-333z" />
<glyph unicode="&#xca;" horiz-adv-x="599" d="M413 830l-78 -81h-56l110 111h58l66 -111h-57zM86 48h395l-11 -48h-454l149 699h442l-10 -49h-383l-57 -265h333l-10 -49h-333z" />
<glyph unicode="&#xcb;" horiz-adv-x="599" d="M281 759l17 81h74l-17 -81h-74zM440 759l17 81h74l-17 -81h-74zM86 48h395l-11 -48h-454l149 699h442l-10 -49h-383l-57 -265h333l-10 -49h-333z" />
<glyph unicode="&#xcc;" horiz-adv-x="239" d="M200 754l-55 106h81l14 -106h-40zM165 699h59l-149 -699h-59z" />
<glyph unicode="&#xcd;" horiz-adv-x="239" d="M214 754h-40l59 106h80zM165 699h59l-149 -699h-59z" />
<glyph unicode="&#xce;" horiz-adv-x="239" d="M223 830l-78 -81h-56l110 111h58l66 -111h-57zM165 699h59l-149 -699h-59z" />
<glyph unicode="&#xcf;" horiz-adv-x="239" d="M91 759l17 81h74l-17 -81h-74zM250 759l17 81h74l-17 -81h-74zM165 699h59l-149 -699h-59z" />
<glyph unicode="&#xd0;" horiz-adv-x="738" d="M379 699q189 0 262.5 -84.5t35.5 -264.5q-39 -183 -143 -266.5t-304 -83.5h-202l70 327h-80l9 45h80l70 327h202zM214 47q190 0 278.5 68t124.5 235t-24 234t-250 67h-117l-60 -279h186l-9 -45h-186l-60 -280h117z" />
<glyph unicode="&#xd1;" horiz-adv-x="719" d="M615 839q-40 -79 -99 -79q-21 0 -57.5 16t-55.5 16q-34 0 -55 -36h-39l1 2q40 81 100 81q22 0 58 -16t55 -16q34 0 52 33zM555 0h-70l-282 615l-131 -615h-56l149 699h68l283 -617l131 617h57z" />
<glyph unicode="&#xd2;" horiz-adv-x="785" d="M477 773l-55 106h81l14 -106h-40zM315 -20q-141 0 -217 106t-42 264q35 164 147.5 266t268.5 102q141 0 217 -104.5t42 -263.5q-35 -164 -149.5 -267t-266.5 -103zM462 670q-125 0 -220.5 -88.5t-125.5 -231.5q-31 -143 27 -232.5t182 -89.5t219.5 89t126.5 233 q30 143 -27.5 231.5t-181.5 88.5z" />
<glyph unicode="&#xd3;" horiz-adv-x="785" d="M491 773h-40l59 106h80zM315 -20q-141 0 -217 106t-42 264q35 164 147.5 266t268.5 102q141 0 217 -104.5t42 -263.5q-35 -164 -149.5 -267t-266.5 -103zM462 670q-125 0 -220.5 -88.5t-125.5 -231.5q-31 -143 27 -232.5t182 -89.5t219.5 89t126.5 233 q30 143 -27.5 231.5t-181.5 88.5z" />
<glyph unicode="&#xd4;" horiz-adv-x="785" d="M500 849l-78 -81h-56l110 111h58l66 -111h-57zM315 -20q-141 0 -217 106t-42 264q35 164 147.5 266t268.5 102q141 0 217 -104.5t42 -263.5q-35 -164 -149.5 -267t-266.5 -103zM462 670q-125 0 -220.5 -88.5t-125.5 -231.5q-31 -143 27 -232.5t182 -89.5t219.5 89 t126.5 233q30 143 -27.5 231.5t-181.5 88.5z" />
<glyph unicode="&#xd5;" horiz-adv-x="785" d="M652 858q-40 -79 -99 -79q-21 0 -57.5 16t-55.5 16q-34 0 -55 -36h-39l1 2q19 39 42 60t58 21q21 0 58 -16t55 -16q34 0 52 33zM315 -20q-141 0 -217 106t-42 264q35 164 147.5 266t268.5 102q141 0 217 -104.5t42 -263.5q-35 -164 -149.5 -267t-266.5 -103zM462 670 q-125 0 -220.5 -88.5t-125.5 -231.5q-31 -143 27 -232.5t182 -89.5t219.5 89t126.5 233q30 143 -27.5 231.5t-181.5 88.5z" />
<glyph unicode="&#xd6;" horiz-adv-x="785" d="M368 778l17 81h74l-17 -81h-74zM527 778l17 81h74l-17 -81h-74zM315 -20q-141 0 -217 106t-42 264q35 164 147.5 266t268.5 102q141 0 217 -104.5t42 -263.5q-35 -164 -149.5 -267t-266.5 -103zM462 670q-125 0 -220.5 -88.5t-125.5 -231.5q-31 -143 27 -232.5t182 -89.5 t219.5 89t126.5 233q30 143 -27.5 231.5t-181.5 88.5z" />
<glyph unicode="&#xd7;" horiz-adv-x="638" d="M585 602l32 -40l-256 -213l166 -212l-49 -40l-167 212l-257 -212l-31 40l257 212l-166 213l48 40l166 -212z" />
<glyph unicode="&#xd8;" horiz-adv-x="785" d="M638 669q65 -46 90 -130t3 -189q-34 -162 -151.5 -266t-264.5 -104q-77 0 -133 30l-65 -93h-44l78 112q-66 46 -92 130.5t-3 190.5q34 161 151.5 264.5t264.5 103.5q75 0 135 -30l69 100h44zM116 350q-19 -93 -1.5 -163.5t67.5 -112.5l394 570q-49 26 -114 26 q-125 0 -220.5 -88.5t-125.5 -231.5zM325 28q124 0 219.5 89t126.5 233q19 93 2 163t-67 111l-394 -570q47 -26 113 -26z" />
<glyph unicode="&#xd9;" horiz-adv-x="670" d="M416 754l-55 106h81l14 -106h-40zM257 -20q-123 0 -169.5 66t-15.5 215l93 438h58l-92 -434q-27 -126 4.5 -181.5t131.5 -55.5q99 0 155 55.5t83 181.5l92 434h58l-93 -438q-31 -149 -106.5 -215t-198.5 -66z" />
<glyph unicode="&#xda;" horiz-adv-x="670" d="M430 754h-40l59 106h80zM257 -20q-123 0 -169.5 66t-15.5 215l93 438h58l-92 -434q-27 -126 4.5 -181.5t131.5 -55.5q99 0 155 55.5t83 181.5l92 434h58l-93 -438q-31 -149 -106.5 -215t-198.5 -66z" />
<glyph unicode="&#xdb;" horiz-adv-x="670" d="M439 830l-78 -81h-56l110 111h58l66 -111h-57zM257 -20q-123 0 -169.5 66t-15.5 215l93 438h58l-92 -434q-27 -126 4.5 -181.5t131.5 -55.5q99 0 155 55.5t83 181.5l92 434h58l-93 -438q-31 -149 -106.5 -215t-198.5 -66z" />
<glyph unicode="&#xdc;" horiz-adv-x="670" d="M307 759l17 81h74l-17 -81h-74zM466 759l17 81h74l-17 -81h-74zM257 -20q-123 0 -169.5 66t-15.5 215l93 438h58l-92 -434q-27 -126 4.5 -181.5t131.5 -55.5q99 0 155 55.5t83 181.5l92 434h58l-93 -438q-31 -149 -106.5 -215t-198.5 -66z" />
<glyph unicode="&#xdd;" horiz-adv-x="562" d="M374 754h-40l59 106h80zM303 323l-69 -323h-59l69 323l-149 376h69l122 -316l260 316h71z" />
<glyph unicode="&#xde;" horiz-adv-x="594" d="M384 572q91 0 138 -62.5t27 -155.5t-93.5 -155.5t-164.5 -62.5h-188l-29 -136h-58l149 699h58l-27 -127h188zM301 186q71 0 126 47t71 121q15 73 -20.5 120.5t-105.5 47.5h-187l-71 -336h187z" />
<glyph unicode="&#xdf;" horiz-adv-x="561" d="M476 180q-20 -92 -94 -137t-174 -45h-7l9 41h3q74 0 133 35.5t74 106.5q27 127 -148 152l8 37q148 46 175 170q14 65 -13 100t-86 35q-67 0 -113 -47t-65 -135l-105 -493h-55l105 492q22 103 88 164t158 61q80 0 120.5 -46.5t23.5 -127.5q-14 -63 -56.5 -111t-108.5 -71 q71 -15 107.5 -59t20.5 -122z" />
<glyph unicode="&#xe0;" horiz-adv-x="529" d="M305 571l-55 106h81l14 -106h-40zM300 506q96 0 129.5 -41.5t11.5 -145.5l-68 -319h-56l14 66q-72 -81 -192 -81q-79 0 -113.5 37t-20.5 103q7 32 24 57t35 39.5t49.5 26.5t52.5 17.5t58 13.5q9 2 14 3q106 23 148 42q16 82 -4.5 110t-90.5 28q-65 0 -99 -19t-50 -60h-55 q40 123 213 123zM157 27q75 0 129 40.5t69 109.5l23 106q-46 -20 -126 -35q-35 -7 -53 -11.5t-46 -14.5t-43 -21.5t-29.5 -31t-19.5 -45.5q-10 -46 13.5 -71.5t82.5 -25.5z" />
<glyph unicode="&#xe1;" horiz-adv-x="529" d="M319 571h-40l59 106h80zM300 506q96 0 129.5 -41.5t11.5 -145.5l-68 -319h-56l14 66q-72 -81 -192 -81q-79 0 -113.5 37t-20.5 103q7 32 24 57t35 39.5t49.5 26.5t52.5 17.5t58 13.5q9 2 14 3q106 23 148 42q16 82 -4.5 110t-90.5 28q-65 0 -99 -19t-50 -60h-55 q40 123 213 123zM157 27q75 0 129 40.5t69 109.5l23 106q-46 -20 -126 -35q-35 -7 -53 -11.5t-46 -14.5t-43 -21.5t-29.5 -31t-19.5 -45.5q-10 -46 13.5 -71.5t82.5 -25.5z" />
<glyph unicode="&#xe2;" horiz-adv-x="529" d="M250 566h-56l110 111h58l66 -111h-57l-43 81zM300 506q96 0 129.5 -41.5t11.5 -145.5l-68 -319h-56l14 66q-72 -81 -192 -81q-79 0 -113.5 37t-20.5 103q7 32 24 57t35 39.5t49.5 26.5t52.5 17.5t58 13.5q9 2 14 3q106 23 148 42q16 82 -4.5 110t-90.5 28q-65 0 -99 -19 t-50 -60h-55q40 123 213 123zM157 27q75 0 129 40.5t69 109.5l23 106q-46 -20 -126 -35q-35 -7 -53 -11.5t-46 -14.5t-43 -21.5t-29.5 -31t-19.5 -45.5q-10 -46 13.5 -71.5t82.5 -25.5z" />
<glyph unicode="&#xe3;" horiz-adv-x="529" d="M268 609q-34 0 -55 -36h-39l1 2q19 39 42 60t58 21q21 0 58 -16t55 -16q34 0 52 33l40 -1q-40 -79 -99 -79q-21 0 -57.5 16t-55.5 16zM300 506q96 0 129.5 -41.5t11.5 -145.5l-68 -319h-56l14 66q-72 -81 -192 -81q-79 0 -113.5 37t-20.5 103q7 32 24 57t35 39.5 t49.5 26.5t52.5 17.5t58 13.5q9 2 14 3q106 23 148 42q16 82 -4.5 110t-90.5 28q-65 0 -99 -19t-50 -60h-55q40 123 213 123zM157 27q75 0 129 40.5t69 109.5l23 106q-46 -20 -126 -35q-35 -7 -53 -11.5t-46 -14.5t-43 -21.5t-29.5 -31t-19.5 -45.5q-10 -46 13.5 -71.5 t82.5 -25.5z" />
<glyph unicode="&#xe4;" horiz-adv-x="529" d="M270 576h-74l17 81h74zM429 576h-74l17 81h74zM300 506q96 0 129.5 -41.5t11.5 -145.5l-68 -319h-56l14 66q-72 -81 -192 -81q-79 0 -113.5 37t-20.5 103q7 32 24 57t35 39.5t49.5 26.5t52.5 17.5t58 13.5q9 2 14 3q106 23 148 42q16 82 -4.5 110t-90.5 28q-65 0 -99 -19 t-50 -60h-55q40 123 213 123zM157 27q75 0 129 40.5t69 109.5l23 106q-46 -20 -126 -35q-35 -7 -53 -11.5t-46 -14.5t-43 -21.5t-29.5 -31t-19.5 -45.5q-10 -46 13.5 -71.5t82.5 -25.5z" />
<glyph unicode="&#xe5;" horiz-adv-x="529" d="M306 546q-36 0 -57.5 25t-13.5 61q7 36 39.5 61.5t68.5 25.5t57.5 -25t14.5 -61t-40 -61.5t-69 -25.5zM337 690q-23 0 -43.5 -17t-25.5 -40t8.5 -40t36.5 -17t43.5 16.5t25.5 39.5q5 24 -8 41t-37 17zM300 506q96 0 129.5 -41.5t11.5 -145.5l-68 -319h-56l14 66 q-72 -81 -192 -81q-79 0 -113.5 37t-20.5 103q7 32 24 57t35 39.5t49.5 26.5t52.5 17.5t58 13.5q9 2 14 3q106 23 148 42q16 82 -4.5 110t-90.5 28q-65 0 -99 -19t-50 -60h-55q40 123 213 123zM157 27q75 0 129 40.5t69 109.5l23 106q-46 -20 -126 -35q-35 -7 -53 -11.5 t-46 -14.5t-43 -21.5t-29.5 -31t-19.5 -45.5q-10 -46 13.5 -71.5t82.5 -25.5z" />
<glyph unicode="&#xe6;" horiz-adv-x="857" d="M424 246q-46 -219 115 -219q102 0 155 84h53q-74 -125 -218 -125q-130 0 -159 113q-77 -113 -224 -113q-80 0 -118 34t-23 104q14 66 61.5 99.5t121.5 50.5q8 2 40.5 8.5t52.5 11t50.5 14t55.5 20.5q16 73 -3.5 103t-90.5 30q-121 0 -152 -80h-55q42 121 214 121 q68 0 104 -22.5t40 -76.5q74 101 189 101q94 0 135 -62q44 -64 16 -196h-360zM737 286q13 82 -13.5 130.5t-95.5 48.5q-72 0 -121.5 -51.5t-72.5 -127.5h303zM378 286q-54 -24 -152 -44q-33 -7 -53.5 -13t-46.5 -18.5t-42.5 -33.5t-22.5 -51q-10 -50 18 -76t81 -26 q50 0 98 22.5t74 65.5q13 21 22 60z" />
<glyph unicode="&#xe7;" horiz-adv-x="508" d="M410 106q-77 -116 -205 -120l-46 -39q43 -6 63.5 -20.5t11.5 -53.5q-8 -38 -39.5 -61t-70.5 -23q-53 0 -83 34l30 26q24 -26 61 -26q23 0 41 13t23 35q4 18 -2.5 29t-23 15t-27.5 5t-31 1l5 23l49 44q-94 10 -127 81.5t-11 176.5q23 113 94.5 186.5t183.5 73.5 q132 0 161 -112h-59q-22 66 -110 66q-87 0 -141 -63t-72 -151q-10 -39 -8 -77t13.5 -68.5t41.5 -49.5t75 -19q90 0 144 74h59z" />
<glyph unicode="&#xe8;" horiz-adv-x="509" d="M297 569l-54 106h81l13 -106h-40zM80 246q-46 -215 119 -215q104 0 149 79h55q-75 -125 -218 -125q-55 0 -93.5 21t-55 57t-20.5 83t9 98q24 111 92.5 185.5t176.5 74.5q72 0 112 -37t44 -94t-8 -127h-362zM393 286q14 80 -13.5 126t-96.5 46q-73 0 -122 -48.5 t-71 -123.5h303z" />
<glyph unicode="&#xe9;" horiz-adv-x="509" d="M311 569h-40l60 106h80zM80 246q-46 -215 119 -215q104 0 149 79h55q-75 -125 -218 -125q-55 0 -93.5 21t-55 57t-20.5 83t9 98q24 111 92.5 185.5t176.5 74.5q72 0 112 -37t44 -94t-8 -127h-362zM393 286q14 80 -13.5 126t-96.5 46q-73 0 -122 -48.5t-71 -123.5h303z " />
<glyph unicode="&#xea;" horiz-adv-x="509" d="M321 645l-79 -81h-56l111 111h58l65 -111h-57zM80 246q-46 -215 119 -215q104 0 149 79h55q-75 -125 -218 -125q-55 0 -93.5 21t-55 57t-20.5 83t9 98q24 111 92.5 185.5t176.5 74.5q72 0 112 -37t44 -94t-8 -127h-362zM393 286q14 80 -13.5 126t-96.5 46 q-73 0 -122 -48.5t-71 -123.5h303z" />
<glyph unicode="&#xeb;" horiz-adv-x="509" d="M188 574l18 81h74l-18 -81h-74zM347 574l18 81h74l-18 -81h-74zM80 246q-46 -215 119 -215q104 0 149 79h55q-75 -125 -218 -125q-55 0 -93.5 21t-55 57t-20.5 83t9 98q24 111 92.5 185.5t176.5 74.5q72 0 112 -37t44 -94t-8 -127h-362zM393 286q14 80 -13.5 126 t-96.5 46q-73 0 -122 -48.5t-71 -123.5h303z" />
<glyph unicode="&#xec;" horiz-adv-x="230" d="M154 561l-55 106h81l14 -106h-40zM13 0l105 490h56l-105 -490h-56z" />
<glyph unicode="&#xed;" horiz-adv-x="230" d="M168 561h-40l59 106h80zM13 0l105 490h56l-105 -490h-56z" />
<glyph unicode="&#xee;" horiz-adv-x="230" d="M177 637l-78 -81h-56l110 111h58l66 -111h-57zM13 0l105 490h56l-105 -490h-56z" />
<glyph unicode="&#xef;" horiz-adv-x="230" d="M45 566l17 81h74l-17 -81h-74zM204 566l17 81h74l-17 -81h-74zM13 0l105 490h56l-105 -490h-56z" />
<glyph unicode="&#xf0;" horiz-adv-x="544" d="M472 252q-25 -115 -96 -191t-181 -76q-108 0 -148 74.5t-16 186.5q23 112 95 186t180 74q64 0 102 -34q-28 70 -92 124l-185 -83l12 53l133 60q-36 24 -133 73h113q44 -19 82 -46l153 68l-12 -53l-102 -46q146 -131 95 -370zM414 246q9 43 8.5 80t-11 70t-39.5 52t-74 19 q-85 0 -138 -65t-72 -156q-9 -43 -9 -80.5t11 -70.5t40 -52t74 -19q86 0 138 64.5t72 157.5z" />
<glyph unicode="&#xf1;" horiz-adv-x="545" d="M489 656q-40 -79 -99 -79q-21 0 -57.5 16t-55.5 16q-34 0 -55 -36h-39l1 2q40 81 100 81q22 0 58 -16t55 -16q34 0 52 33zM396 296q8 46 10 83t-19.5 60.5t-67.5 23.5q-59 0 -103 -34.5t-67 -88.5q-14 -31 -28 -97l-52 -243h-56l105 490h56l-17 -79q71 94 182 94 q62 0 92.5 -26.5t31.5 -72t-10 -105.5l-64 -301h-56z" />
<glyph unicode="&#xf2;" horiz-adv-x="535" d="M309 570l-55 106h81l14 -106h-40zM467 246q-24 -112 -96 -186.5t-180 -74.5t-148.5 74.5t-16.5 186.5q23 112 95.5 185.5t180.5 73.5q73 0 117 -36.5t52 -94t-4 -128.5zM408 245q9 42 9 78.5t-10.5 68.5t-39.5 50.5t-74 18.5q-86 0 -138 -62.5t-72 -155.5 q-9 -54 -7.5 -101.5t33.5 -80t92 -32.5q87 0 137.5 62t69.5 154z" />
<glyph unicode="&#xf3;" horiz-adv-x="535" d="M323 570h-40l59 106h80zM467 246q-24 -112 -96 -186.5t-180 -74.5t-148.5 74.5t-16.5 186.5q23 112 95.5 185.5t180.5 73.5q73 0 117 -36.5t52 -94t-4 -128.5zM408 245q9 42 9 78.5t-10.5 68.5t-39.5 50.5t-74 18.5q-86 0 -138 -62.5t-72 -155.5q-9 -54 -7.5 -101.5 t33.5 -80t92 -32.5q87 0 137.5 62t69.5 154z" />
<glyph unicode="&#xf4;" horiz-adv-x="535" d="M332 646l-78 -81h-56l110 111h58l66 -111h-57zM467 246q-24 -112 -96 -186.5t-180 -74.5t-148.5 74.5t-16.5 186.5q23 112 95.5 185.5t180.5 73.5q73 0 117 -36.5t52 -94t-4 -128.5zM408 245q9 42 9 78.5t-10.5 68.5t-39.5 50.5t-74 18.5q-86 0 -138 -62.5t-72 -155.5 q-9 -54 -7.5 -101.5t33.5 -80t92 -32.5q87 0 137.5 62t69.5 154z" />
<glyph unicode="&#xf5;" horiz-adv-x="535" d="M484 655q-40 -79 -99 -79q-21 0 -57.5 16t-55.5 16q-34 0 -55 -36h-39v2q20 39 43 60t58 21q21 0 58 -16t55 -16q34 0 52 33zM467 246q-24 -112 -96 -186.5t-180 -74.5t-148.5 74.5t-16.5 186.5q23 112 95.5 185.5t180.5 73.5q73 0 117 -36.5t52 -94t-4 -128.5zM408 245 q9 42 9 78.5t-10.5 68.5t-39.5 50.5t-74 18.5q-86 0 -138 -62.5t-72 -155.5q-9 -54 -7.5 -101.5t33.5 -80t92 -32.5q87 0 137.5 62t69.5 154z" />
<glyph unicode="&#xf6;" horiz-adv-x="535" d="M200 575l17 81h74l-17 -81h-74zM359 575l17 81h74l-17 -81h-74zM467 246q-24 -112 -96 -186.5t-180 -74.5t-148.5 74.5t-16.5 186.5q23 112 95.5 185.5t180.5 73.5q73 0 117 -36.5t52 -94t-4 -128.5zM408 245q9 42 9 78.5t-10.5 68.5t-39.5 50.5t-74 18.5 q-86 0 -138 -62.5t-72 -155.5q-9 -54 -7.5 -101.5t33.5 -80t92 -32.5q87 0 137.5 62t69.5 154z" />
<glyph unicode="&#xf7;" horiz-adv-x="680" d="M431 534q-4 -22 -23.5 -38t-42.5 -16q-22 0 -34 15.5t-7 38.5q4 22 23 37.5t41 15.5t35 -15.5t8 -37.5zM51 317l12 58h566l-12 -58h-566zM351 157q-5 -22 -24 -37.5t-41 -15.5t-34.5 15.5t-7.5 37.5q4 22 23 38t41 16t35 -15.5t8 -38.5z" />
<glyph unicode="&#xf8;" horiz-adv-x="535" d="M444 442q49 -71 23 -196q-24 -112 -96 -186.5t-180 -74.5q-69 0 -113 33l-67 -78h-42l87 101q-60 72 -30 205q23 112 95.5 185.5t180.5 73.5q76 0 120 -39l64 73h42zM83 243q-22 -104 9 -160l296 342q-34 36 -95 36q-86 0 -138 -62.5t-72 -155.5zM201 29q87 0 137.5 62 t69.5 154q21 94 -3 151l-292 -338q31 -29 88 -29z" />
<glyph unicode="&#xf9;" horiz-adv-x="545" d="M312 562l-55 106h81l14 -106h-40zM346 79q-70 -94 -182 -94q-53 0 -88.5 26t-37.5 75q-3 37 13 113l62 291h56l-63 -296q-19 -89 1 -127t81 -38q55 0 99 33.5t66 87.5q14 31 28 97l52 243h56l-105 -490h-56z" />
<glyph unicode="&#xfa;" horiz-adv-x="545" d="M326 562h-40l59 106h80zM346 79q-70 -94 -182 -94q-53 0 -88.5 26t-37.5 75q-3 37 13 113l62 291h56l-63 -296q-19 -89 1 -127t81 -38q55 0 99 33.5t66 87.5q14 31 28 97l52 243h56l-105 -490h-56z" />
<glyph unicode="&#xfb;" horiz-adv-x="545" d="M335 638l-78 -81h-56l110 111h58l66 -111h-57zM346 79q-70 -94 -182 -94q-53 0 -88.5 26t-37.5 75q-3 37 13 113l62 291h56l-63 -296q-19 -89 1 -127t81 -38q55 0 99 33.5t66 87.5q14 31 28 97l52 243h56l-105 -490h-56z" />
<glyph unicode="&#xfc;" horiz-adv-x="545" d="M203 567l17 81h74l-17 -81h-74zM362 567l17 81h74l-17 -81h-74zM346 79q-70 -94 -182 -94q-53 0 -88.5 26t-37.5 75q-3 37 13 113l62 291h56l-63 -296q-19 -89 1 -127t81 -38q55 0 99 33.5t66 87.5q14 31 28 97l52 243h56l-105 -490h-56z" />
<glyph unicode="&#xfd;" horiz-adv-x="463" d="M285 561h-40l59 106h80zM477 490l-350 -602q-71 -120 -163 -120q-22 0 -37 4l14 46q16 -4 28 -4q41 0 64 22t49 69l59 100l-93 485h58l75 -411l240 411h56z" />
<glyph unicode="&#xfe;" d="M503 245q-22 -106 -95 -182.5t-174 -76.5q-124 0 -154 97l-65 -308h-49l196 924h49l-65 -307q79 111 202 111q66 0 107.5 -39t50 -96t-2.5 -123zM447 245q9 52 5 98.5t-36 79t-86 32.5q-81 0 -137.5 -62.5t-74.5 -147.5q-8 -54 -3.5 -100.5t37.5 -78.5t89 -32 q81 0 134.5 62.5t71.5 148.5z" />
<glyph unicode="&#xff;" horiz-adv-x="463" d="M236 566h-74l17 81h74zM395 566h-74l17 81h74zM477 490l-350 -602q-71 -120 -163 -120q-22 0 -37 4l14 46q16 -4 28 -4q41 0 64 22t49 69l59 100l-93 485h58l75 -411l240 411h56z" />
<glyph unicode="&#x100;" horiz-adv-x="603" d="M287 769l10 47h215l-10 -47h-215zM421 225h-288l-126 -225h-62l398 699h77l90 -699h-62zM369 648l-210 -377h257z" />
<glyph unicode="&#x101;" horiz-adv-x="529" d="M422 586h-215l10 47h215zM300 506q96 0 129.5 -41.5t11.5 -145.5l-68 -319h-56l14 66q-72 -81 -192 -81q-79 0 -113.5 37t-20.5 103q7 32 24 57t35 39.5t49.5 26.5t52.5 17.5t58 13.5q9 2 14 3q106 23 148 42q16 82 -4.5 110t-90.5 28q-65 0 -99 -19t-50 -60h-55 q40 123 213 123zM157 27q75 0 129 40.5t69 109.5l23 106q-46 -20 -126 -35q-35 -7 -53 -11.5t-46 -14.5t-43 -21.5t-29.5 -31t-19.5 -45.5q-10 -46 13.5 -71.5t82.5 -25.5z" />
<glyph unicode="&#x102;" horiz-adv-x="603" d="M541 863q-16 -50 -58.5 -82.5t-92.5 -32.5t-78 32.5t-23 82.5h42q-2 -32 16.5 -54.5t50.5 -22.5q33 0 62 22t40 55h41zM421 225h-288l-126 -225h-62l398 699h77l90 -699h-62zM369 648l-210 -377h257z" />
<glyph unicode="&#x103;" horiz-adv-x="529" d="M311 565q-50 0 -78.5 32.5t-23.5 82.5h42q-2 -32 17 -54.5t51 -22.5q33 0 61.5 22t39.5 55h41q-16 -50 -58 -82.5t-92 -32.5zM300 506q96 0 129.5 -41.5t11.5 -145.5l-68 -319h-56l14 66q-72 -81 -192 -81q-79 0 -113.5 37t-20.5 103q7 32 24 57t35 39.5t49.5 26.5 t52.5 17.5t58 13.5q9 2 14 3q106 23 148 42q16 82 -4.5 110t-90.5 28q-65 0 -99 -19t-50 -60h-55q40 123 213 123zM157 27q75 0 129 40.5t69 109.5l23 106q-46 -20 -126 -35q-35 -7 -53 -11.5t-46 -14.5t-43 -21.5t-29.5 -31t-19.5 -45.5q-10 -46 13.5 -71.5t82.5 -25.5z " />
<glyph unicode="&#x104;" horiz-adv-x="603" d="M443 -117q10 -25 26 -37l-48 -27q-23 15 -35 46q-15 36 6 71.5t62 63.5h-6l-27 225h-288l-126 -225h-62l398 699h77l90 -699q-93 -58 -67 -117zM159 271h257l-47 377z" />
<glyph unicode="&#x105;" horiz-adv-x="529" d="M373 0q-93 -58 -67 -117q10 -25 26 -37l-48 -27q-23 15 -35 46q-15 36 6 71.5t62 63.5l14 66q-72 -81 -192 -81q-79 0 -113.5 37t-20.5 103q7 32 24 57t35 39.5t49.5 26.5t52.5 17.5t58 13.5q9 2 14 3q106 23 148 42q16 82 -4.5 110t-90.5 28q-65 0 -99 -19t-50 -60h-55 q40 123 213 123q96 0 129.5 -41.5t11.5 -145.5zM157 27q75 0 129 40.5t69 109.5l23 106q-46 -20 -126 -35q-35 -7 -53 -11.5t-46 -14.5t-43 -21.5t-29.5 -31t-19.5 -45.5q-10 -46 13.5 -71.5t82.5 -25.5z" />
<glyph unicode="&#x106;" horiz-adv-x="738" d="M487 774h-40l59 106h80zM671 518q-6 68 -59 109.5t-142 41.5q-131 0 -227.5 -94t-124.5 -225q-18 -85 -1 -156.5t72.5 -117.5t141.5 -46q84 0 156.5 41.5t113.5 109.5h60q-53 -91 -145 -146t-198 -55q-97 0 -164.5 51.5t-92 136t-3.5 181.5q33 156 148.5 263t275.5 107 q109 0 177.5 -56t71.5 -145h-60z" />
<glyph unicode="&#x107;" horiz-adv-x="508" d="M327 575h-40l59 106h80zM410 106q-79 -120 -215 -120q-111 0 -151 73.5t-16 186.5q23 113 94.5 186.5t183.5 73.5q132 0 161 -112h-59q-22 66 -110 66q-87 0 -141 -63t-72 -151q-10 -39 -8 -77t13.5 -68.5t41.5 -49.5t75 -19q90 0 144 74h59z" />
<glyph unicode="&#x10c;" horiz-adv-x="738" d="M449 769l-64 111h56l44 -82l77 82h57l-112 -111h-58zM671 518q-6 68 -59 109.5t-142 41.5q-131 0 -227.5 -94t-124.5 -225q-18 -85 -1 -156.5t72.5 -117.5t141.5 -46q84 0 156.5 41.5t113.5 109.5h60q-53 -91 -145 -146t-198 -55q-97 0 -164.5 51.5t-92 136t-3.5 181.5 q33 156 148.5 263t275.5 107q109 0 177.5 -56t71.5 -145h-60z" />
<glyph unicode="&#x10d;" horiz-adv-x="508" d="M289 570l-64 111h56l44 -82l77 82h57l-112 -111h-58zM410 106q-79 -120 -215 -120q-111 0 -151 73.5t-16 186.5q23 113 94.5 186.5t183.5 73.5q132 0 161 -112h-59q-22 66 -110 66q-87 0 -141 -63t-72 -151q-10 -39 -8 -77t13.5 -68.5t41.5 -49.5t75 -19q90 0 144 74h59z " />
<glyph unicode="&#x10e;" horiz-adv-x="726" d="M369 749l-64 111h56l44 -82l77 82h57l-112 -111h-58zM16 0l149 699h202q189 0 262.5 -84.5t35.5 -264.5q-39 -183 -143 -266.5t-304 -83.5h-202zM214 651l-129 -604h117q190 0 278.5 68t124.5 235t-24 234t-250 67h-117z" />
<glyph unicode="&#x10f;" horiz-adv-x="599" d="M381 86q-75 -100 -197 -100q-68 0 -110.5 38t-51 95.5t2.5 125.5q22 102 96.5 180.5t171.5 78.5q118 0 150 -94l61 289h56l-149 -699h-49zM705 657q-13 -64 -25 -93t-43 -78h-16q31 59 46 130h-36l18 82h65zM410 245q18 86 -11.5 148.5t-111.5 62.5q-80 0 -133.5 -63 t-72.5 -148q-10 -37 -7 -75t14 -68t39.5 -49t70.5 -19q82 0 138.5 63t73.5 148z" />
<glyph unicode="&#x110;" horiz-adv-x="738" d="M379 699q189 0 262.5 -84.5t35.5 -264.5q-39 -183 -143 -266.5t-304 -83.5h-202l70 327h-80l9 45h80l70 327h202zM214 47q190 0 278.5 68t124.5 235t-24 234t-250 67h-117l-60 -279h186l-9 -45h-186l-60 -280h117z" />
<glyph unicode="&#x111;" d="M598 583h-63l-124 -583h-49l19 86q-75 -100 -197 -100q-68 0 -110.5 38t-51 95.5t2.5 125.5q22 102 96.5 180.5t171.5 78.5q118 0 150 -94l36 173h-204l11 48h204l14 68h56l-14 -68h63zM198 34q82 0 138.5 63t73.5 148q18 86 -11.5 148.5t-111.5 62.5q-80 0 -133.5 -63 t-72.5 -148q-10 -37 -7 -75t14 -68t39.5 -49t70.5 -19z" />
<glyph unicode="&#x112;" horiz-adv-x="599" d="M292 769l10 47h215l-10 -47h-215zM86 48h395l-11 -48h-454l149 699h442l-10 -49h-383l-57 -265h333l-10 -49h-333z" />
<glyph unicode="&#x113;" horiz-adv-x="509" d="M200 584l10 47h215l-10 -47h-215zM80 246q-46 -215 119 -215q104 0 149 79h55q-75 -125 -218 -125q-55 0 -93.5 21t-55 57t-20.5 83t9 98q24 111 92.5 185.5t176.5 74.5q72 0 112 -37t44 -94t-8 -127h-362zM393 286q14 80 -13.5 126t-96.5 46q-73 0 -122 -48.5 t-71 -123.5h303z" />
<glyph unicode="&#x116;" horiz-adv-x="599" d="M361 759l17 81h74l-17 -81h-74zM86 48h395l-11 -48h-454l149 699h442l-10 -49h-383l-57 -265h333l-10 -49h-333z" />
<glyph unicode="&#x117;" horiz-adv-x="509" d="M268 574l18 81h74l-18 -81h-74zM80 246q-46 -215 119 -215q104 0 149 79h55q-75 -125 -218 -125q-55 0 -93.5 21t-55 57t-20.5 83t9 98q24 111 92.5 185.5t176.5 74.5q72 0 112 -37t44 -94t-8 -127h-362zM393 286q14 80 -13.5 126t-96.5 46q-73 0 -122 -48.5t-71 -123.5 h303z" />
<glyph unicode="&#x118;" horiz-adv-x="599" d="M470 0q-93 -58 -67 -117q10 -25 26 -37l-48 -27q-23 15 -35 46q-15 36 6 71.5t62 63.5h-398l149 699h442l-10 -49h-383l-57 -265h333l-10 -49h-333l-61 -288h395z" />
<glyph unicode="&#x119;" horiz-adv-x="509" d="M199 31q104 0 149 79h55q-62 -102 -171 -121q-75 -53 -51 -106q10 -25 26 -37l-48 -27q-23 15 -35 46q-25 59 49 120q-68 3 -107.5 40.5t-46 94t5.5 124.5q24 111 92.5 185.5t176.5 74.5q72 0 112 -37t44 -94t-8 -127h-362q-46 -215 119 -215zM283 458q-73 0 -122 -48.5 t-71 -123.5h303q14 80 -13.5 126t-96.5 46z" />
<glyph unicode="&#x11a;" horiz-adv-x="599" d="M366 749l-64 111h56l44 -82l77 82h57l-112 -111h-58zM86 48h395l-11 -48h-454l149 699h442l-10 -49h-383l-57 -265h333l-10 -49h-333z" />
<glyph unicode="&#x11b;" horiz-adv-x="509" d="M273 564l-63 111h56l43 -82l78 82h57l-113 -111h-58zM80 246q-46 -215 119 -215q104 0 149 79h55q-75 -125 -218 -125q-55 0 -93.5 21t-55 57t-20.5 83t9 98q24 111 92.5 185.5t176.5 74.5q72 0 112 -37t44 -94t-8 -127h-362zM393 286q14 80 -13.5 126t-96.5 46 q-73 0 -122 -48.5t-71 -123.5h303z" />
<glyph unicode="&#x122;" horiz-adv-x="798" d="M322 -20q-104 0 -173 52t-91.5 135.5t-1.5 182.5q33 157 144.5 263t279.5 106q108 0 174.5 -51t76.5 -150h-60q-12 75 -64 113t-136 38q-133 0 -229 -87.5t-126 -230.5q-31 -145 28.5 -233t188.5 -88q125 0 213.5 80t113.5 199h-223l11 50h283l-2 -7q-34 -164 -142 -268 t-265 -104zM333 -107q-14 -65 -26 -94t-43 -77h-16q32 58 47 130h-36l17 82h65z" />
<glyph unicode="&#x123;" d="M360 576h-65l17 82h36q16 72 9 130h16q11 -47 10 -76.5t-14 -94.5zM416 23q-25 -116 -63 -165q-70 -91 -199 -91q-83 0 -130 42.5t-37 124.5h57q-6 -120 123 -120q78 0 124 43q16 15 28 34.5t20.5 46.5t13 45t11 51t8.5 43q-74 -92 -186 -92q-52 0 -89.5 22t-55 58.5 t-23 83t6.5 94.5q22 105 96 183.5t179 78.5q118 0 147 -102l19 87h50zM410 245q9 54 4 101t-38 78.5t-88 31.5q-81 0 -134.5 -63t-72.5 -148q-10 -37 -7 -75t14 -68.5t40 -49.5t71 -19q81 0 137.5 63.5t73.5 148.5z" />
<glyph unicode="&#x12a;" horiz-adv-x="239" d="M102 769l10 47h215l-10 -47h-215zM165 699h59l-149 -699h-59z" />
<glyph unicode="&#x12b;" horiz-adv-x="230" d="M56 576l10 47h215l-10 -47h-215zM13 0l105 490h56l-105 -490h-56z" />
<glyph unicode="&#x12e;" horiz-adv-x="239" d="M75 0q-93 -58 -67 -117q10 -25 26 -37l-48 -27q-23 15 -35 46q-15 36 6 71.5t62 63.5h-3l149 699h59z" />
<glyph unicode="&#x12f;" horiz-adv-x="230" d="M69 0q-93 -58 -67 -117q10 -25 26 -37l-48 -27q-23 15 -35 46q-15 36 6 71.5t62 63.5l105 490h56z" />
<glyph unicode="&#x131;" horiz-adv-x="230" d="M13 0l105 490h56l-105 -490h-56z" />
<glyph unicode="&#x136;" horiz-adv-x="609" d="M642 699l-322 -284l192 -415h-70l-171 370l-146 -125l-52 -245h-57l149 699h57l-83 -389l439 389h64zM247 -107q-14 -65 -26 -94t-43 -77h-16q32 58 47 130h-36l17 82h65z" />
<glyph unicode="&#x137;" horiz-adv-x="459" d="M466 490l-274 -226l175 -264h-68l-175 255l-55 -255h-56l149 699h56l-93 -438l279 229h62zM179 -106q-14 -65 -25.5 -94t-42.5 -77h-16q31 59 46 130h-36l18 82h65z" />
<glyph unicode="&#x139;" horiz-adv-x="532" d="M311 754h-40l59 106h80zM86 48h346l-11 -48h-405l149 699h59z" />
<glyph unicode="&#x13a;" horiz-adv-x="266" d="M207 754h-40l59 106h80zM123 -3q-60 0 -78.5 30t-5.5 93l123 579h56l-123 -577q-10 -47 0.5 -62t54.5 -15l-10 -48h-17z" />
<glyph unicode="&#x13b;" horiz-adv-x="532" d="M86 48h346l-11 -48h-405l149 699h59zM235 -107q-14 -65 -26 -94t-43 -77h-16q32 58 47 130h-36l17 82h65z" />
<glyph unicode="&#x13c;" horiz-adv-x="266" d="M123 -3q-60 0 -78.5 30t-5.5 93l123 579h56l-123 -577q-10 -47 0.5 -62t54.5 -15l-10 -48h-17zM91 -109q-13 -65 -24.5 -94t-43.5 -77h-16q32 62 47 130h-36l17 82h65z" />
<glyph unicode="&#x13d;" horiz-adv-x="532" d="M86 48h346l-11 -48h-405l149 699h59zM456 657q-13 -64 -25 -93t-43 -78h-16q31 59 46 130h-36l18 82h65z" />
<glyph unicode="&#x13e;" horiz-adv-x="266" d="M349 659q-13 -65 -24.5 -94t-43.5 -77h-16q32 58 47 130h-36l17 82h65zM123 -3q-60 0 -78.5 30t-5.5 93l123 579h56l-123 -577q-10 -47 0.5 -62t54.5 -15l-10 -48h-17z" />
<glyph unicode="&#x141;" horiz-adv-x="532" d="M432 48l-11 -48h-405l62 288l-68 -39l11 51l67 39l77 360h59l-68 -320l154 90l-11 -51l-154 -90l-59 -280h346z" />
<glyph unicode="&#x142;" horiz-adv-x="266" d="M140 334l-45 -212q-10 -47 0.5 -62t54.5 -15l-10 -48h-17q-60 0 -78.5 30t-5.5 93l37 176l-86 -51l11 51l86 51l75 352h56l-67 -314l97 57l-10 -51z" />
<glyph unicode="&#x143;" horiz-adv-x="719" d="M454 754h-40l59 106h80zM555 0h-70l-282 615l-131 -615h-56l149 699h68l283 -617l131 617h57z" />
<glyph unicode="&#x144;" horiz-adv-x="545" d="M328 571h-40l59 106h80zM396 296q8 46 10 83t-19.5 60.5t-67.5 23.5q-59 0 -103 -34.5t-67 -88.5q-14 -31 -28 -97l-52 -243h-56l105 490h56l-17 -79q71 94 182 94q62 0 92.5 -26.5t31.5 -72t-10 -105.5l-64 -301h-56z" />
<glyph unicode="&#x145;" horiz-adv-x="719" d="M555 0h-70l-282 615l-131 -615h-56l149 699h68l283 -617l131 617h57zM304 -105q-13 -64 -25 -93t-43 -78h-16q31 59 46 130h-36l18 82h65z" />
<glyph unicode="&#x146;" horiz-adv-x="545" d="M396 296q8 46 10 83t-19.5 60.5t-67.5 23.5q-59 0 -103 -34.5t-67 -88.5q-14 -31 -28 -97l-52 -243h-56l105 490h56l-17 -79q71 94 182 94q62 0 92.5 -26.5t31.5 -72t-10 -105.5l-64 -301h-56zM216 -106q-14 -65 -25.5 -94t-42.5 -77h-16q31 59 46 130h-36l18 82h65z" />
<glyph unicode="&#x147;" horiz-adv-x="719" d="M416 749l-64 111h56l44 -82l77 82h57l-112 -111h-58zM555 0h-70l-282 615l-131 -615h-56l149 699h68l283 -617l131 617h57z" />
<glyph unicode="&#x148;" horiz-adv-x="545" d="M290 566l-64 111h56l44 -82l77 82h57l-112 -111h-58zM396 296q8 46 10 83t-19.5 60.5t-67.5 23.5q-59 0 -103 -34.5t-67 -88.5q-14 -31 -28 -97l-52 -243h-56l105 490h56l-17 -79q71 94 182 94q62 0 92.5 -26.5t31.5 -72t-10 -105.5l-64 -301h-56z" />
<glyph unicode="&#x14a;" horiz-adv-x="719" d="M704 699l-169 -795q-25 -118 -129 -118q-20 0 -38 3l9 43q14 -2 21 -2q23 0 38.5 7t24.5 23t13.5 29t9.5 37l16 75l-297 614l-131 -615h-56l149 699h68l287 -596l127 596h57z" />
<glyph unicode="&#x14b;" horiz-adv-x="545" d="M339 505q62 0 92.5 -26.5t31.5 -72t-10 -105.5l-88 -417q-26 -118 -129 -118q-20 0 -39 3l9 43q14 -2 22 -2q30 0 48 15t24.5 32.5t12.5 48.5l83 390q8 46 10 83t-19.5 60.5t-67.5 23.5q-59 0 -103 -34.5t-67 -88.5q-14 -31 -28 -97l-52 -243h-56l105 490h56l-17 -79 q71 94 182 94z" />
<glyph unicode="&#x14c;" horiz-adv-x="785" d="M379 788l10 47h215l-10 -47h-215zM315 -20q-141 0 -217 106t-42 264q35 164 147.5 266t268.5 102q141 0 217 -104.5t42 -263.5q-35 -164 -149.5 -267t-266.5 -103zM462 670q-125 0 -220.5 -88.5t-125.5 -231.5q-31 -143 27 -232.5t182 -89.5t219.5 89t126.5 233 q30 143 -27.5 231.5t-181.5 88.5z" />
<glyph unicode="&#x14d;" horiz-adv-x="535" d="M211 585l10 47h215l-10 -47h-215zM467 246q-24 -112 -96 -186.5t-180 -74.5t-148.5 74.5t-16.5 186.5q23 112 95.5 185.5t180.5 73.5q73 0 117 -36.5t52 -94t-4 -128.5zM408 245q9 42 9 78.5t-10.5 68.5t-39.5 50.5t-74 18.5q-86 0 -138 -62.5t-72 -155.5 q-9 -54 -7.5 -101.5t33.5 -80t92 -32.5q87 0 137.5 62t69.5 154z" />
<glyph unicode="&#x150;" horiz-adv-x="785" d="M404 773h-44l106 106h85zM543 773h-44l105 106h85zM315 -20q-141 0 -217 106t-42 264q35 164 147.5 266t268.5 102q141 0 217 -104.5t42 -263.5q-35 -164 -149.5 -267t-266.5 -103zM462 670q-125 0 -220.5 -88.5t-125.5 -231.5q-31 -143 27 -232.5t182 -89.5t219.5 89 t126.5 233q30 143 -27.5 231.5t-181.5 88.5z" />
<glyph unicode="&#x151;" horiz-adv-x="535" d="M236 570h-44l106 106h85zM375 570h-44l105 106h85zM467 246q-24 -112 -96 -186.5t-180 -74.5t-148.5 74.5t-16.5 186.5q23 112 95.5 185.5t180.5 73.5q73 0 117 -36.5t52 -94t-4 -128.5zM408 245q9 42 9 78.5t-10.5 68.5t-39.5 50.5t-74 18.5q-86 0 -138 -62.5 t-72 -155.5q-9 -54 -7.5 -101.5t33.5 -80t92 -32.5q87 0 137.5 62t69.5 154z" />
<glyph unicode="&#x152;" horiz-adv-x="1001" d="M437 0q-60 -20 -122 -20q-104 0 -170.5 52.5t-87 135t-0.5 180.5q33 154 148.5 262.5t264.5 108.5q64 0 114 -21h425l-10 -48h-365l-57 -265h315l-10 -49h-315l-61 -288h377l-11 -48h-435zM573 644q-50 29 -116 29q-83 0 -156.5 -48t-119.5 -121t-63 -155 q-15 -59 -7.5 -116.5t30 -103.5t71.5 -74t115 -28q63 0 121 26z" />
<glyph unicode="&#x153;" horiz-adv-x="890" d="M461 246q-9 -54 -6.5 -103t34.5 -83.5t90 -34.5q46 0 86 21.5t66 63.5h53q-75 -125 -218 -125q-138 0 -160 124q-80 -123 -216 -123q-108 0 -148 74.5t-16 186.5q23 112 95 185.5t181 73.5q138 0 163 -124q75 122 209 122q73 0 113 -37t44 -94t-8 -127h-362zM409 247 q9 43 8.5 80t-11 70t-39 52t-73.5 19q-86 0 -139 -65t-72 -157q-9 -42 -9 -79t11 -70t40 -52.5t74 -19.5t82 19t62 52t41 70.5t25 80.5zM774 286q13 81 -13.5 130t-96.5 49q-72 0 -121 -51t-72 -128h303z" />
<glyph unicode="&#x154;" horiz-adv-x="618" d="M383 754h-40l59 106h80zM427 699q93 0 140 -61.5t27 -155.5q-18 -83 -79.5 -141t-148.5 -73l153 -268h-72l-150 266h-166l-57 -266h-58l149 699h262zM337 316q73 0 127 46.5t70 120.5q16 72 -17 118.5t-110 46.5h-195l-70 -332h195z" />
<glyph unicode="&#x155;" horiz-adv-x="325" d="M235 565h-40l59 106h80zM323 440q-6 1 -19 1q-84 0 -141 -74q-29 -39 -50 -133l-50 -234h-50l105 490h50l-20 -94q61 99 175 99q2 0 5.5 -0.5t5.5 -0.5z" />
<glyph unicode="&#x156;" horiz-adv-x="618" d="M427 699q93 0 140 -61.5t27 -155.5q-18 -83 -79.5 -141t-148.5 -73l153 -268h-72l-150 266h-166l-57 -266h-58l149 699h262zM337 316q73 0 127 46.5t70 120.5q16 72 -17 118.5t-110 46.5h-195l-70 -332h195zM251 -106q-14 -65 -25.5 -94t-42.5 -77h-16q31 59 46 130h-36 l18 82h65z" />
<glyph unicode="&#x157;" horiz-adv-x="325" d="M323 440q-6 1 -19 1q-84 0 -141 -74q-29 -39 -50 -133l-50 -234h-50l105 490h50l-20 -94q61 99 175 99q2 0 5.5 -0.5t5.5 -0.5zM50 -105q-13 -64 -25 -93t-43 -78h-16q31 59 46 130h-36l18 82h65z" />
<glyph unicode="&#x158;" horiz-adv-x="618" d="M345 749l-64 111h56l44 -82l77 82h57l-112 -111h-58zM427 699q93 0 140 -61.5t27 -155.5q-18 -83 -79.5 -141t-148.5 -73l153 -268h-72l-150 266h-166l-57 -266h-58l149 699h262zM337 316q73 0 127 46.5t70 120.5q16 72 -17 118.5t-110 46.5h-195l-70 -332h195z" />
<glyph unicode="&#x159;" horiz-adv-x="325" d="M196 560l-63 111h56l44 -82l77 82h57l-113 -111h-58zM323 440q-6 1 -19 1q-84 0 -141 -74q-29 -39 -50 -133l-50 -234h-50l105 490h50l-20 -94q61 99 175 99q2 0 5.5 -0.5t5.5 -0.5z" />
<glyph unicode="&#x15a;" horiz-adv-x="649" d="M424 774h-40l59 106h80zM258 -20q-121 0 -179 56.5t-44 168.5h60q-12 -82 33.5 -128.5t146.5 -46.5q190 0 224 158q12 56 -13 86.5t-107 50.5l-104 26q-90 23 -123 65.5t-18 111.5q18 87 89 139t188 52q101 0 158 -43t51 -140h-58q5 69 -37.5 102t-124.5 33 q-87 0 -140 -36t-67 -103q-12 -55 14.5 -84t97.5 -47l103 -26q97 -24 131.5 -69t18.5 -120q-21 -100 -101 -153t-199 -53z" />
<glyph unicode="&#x15b;" horiz-adv-x="467" d="M282 570h-40l59 106h80zM379 132q-15 -74 -77.5 -110.5t-143.5 -36.5q-75 0 -120 33t-39 101h60q-1 -47 31.5 -66.5t82.5 -19.5q61 0 101 25.5t50 69.5q5 25 -1.5 43t-28 29.5t-39 17t-51.5 13.5q-17 4 -23.5 6t-22 6t-22.5 7t-19.5 8.5t-18.5 11t-14.5 13t-12 16 t-6.5 19.5t-2.5 23.5t3.5 27.5q15 70 73 103t131 33q75 0 115 -33t36 -94h-60q0 80 -99 80q-57 0 -95 -23.5t-47 -64.5q-5 -23 1.5 -39.5t27.5 -27.5t37.5 -16t50.5 -13l24 -6t23 -6t23 -7.5t20.5 -9t18.5 -11t15 -13.5t12.5 -17t6.5 -19.5t2.5 -24t-3.5 -28.5z" />
<glyph unicode="&#x15e;" horiz-adv-x="649" d="M558 186q-21 -98 -97 -150.5t-191 -55.5l-40 -33q43 -6 63.5 -20.5t11.5 -53.5q-8 -38 -39.5 -61t-70.5 -23q-53 0 -83 34l30 26q24 -26 61 -26q23 0 41 13t23 35q4 18 -2.5 29t-23 15t-27.5 5t-31 1l5 23l41 37q-106 6 -156.5 62.5t-37.5 161.5h60q-12 -82 33.5 -128.5 t146.5 -46.5q190 0 224 158q12 56 -13 86.5t-107 50.5l-104 26q-90 23 -123 65.5t-18 111.5q18 87 89 139t188 52q101 0 158 -43t51 -140h-58q5 69 -37.5 102t-124.5 33q-87 0 -140 -36t-67 -103q-12 -55 14.5 -84t97.5 -47l103 -26q97 -24 131.5 -69t18.5 -120z" />
<glyph unicode="&#x15f;" horiz-adv-x="467" d="M379 132q-14 -67 -67.5 -103.5t-126.5 -42.5l-46 -39q43 -6 63.5 -20.5t11.5 -53.5q-8 -38 -39.5 -61t-70.5 -23q-53 0 -83 34l30 26q24 -26 61 -26q23 0 41 13t23 35q4 18 -2.5 29t-23 15t-27.5 5t-31 1l5 23l46 41q-69 3 -109.5 36t-34.5 98h60q-1 -47 31.5 -66.5 t82.5 -19.5q61 0 101 25.5t50 69.5q5 25 -1.5 43t-28 29.5t-39 17t-51.5 13.5q-17 4 -23.5 6t-22 6t-22.5 7t-19.5 8.5t-18.5 11t-14.5 13t-12 16t-6.5 19.5t-2.5 23.5t3.5 27.5q15 70 73 103t131 33q75 0 115 -33t36 -94h-60q0 80 -99 80q-57 0 -95 -23.5t-47 -64.5 q-5 -23 1.5 -39.5t27.5 -27.5t37.5 -16t50.5 -13l24 -6t23 -6t23 -7.5t20.5 -9t18.5 -11t15 -13.5t12.5 -17t6.5 -19.5t2.5 -24t-3.5 -28.5z" />
<glyph unicode="&#x160;" horiz-adv-x="649" d="M386 769l-64 111h56l44 -82l77 82h57l-112 -111h-58zM258 -20q-121 0 -179 56.5t-44 168.5h60q-12 -82 33.5 -128.5t146.5 -46.5q190 0 224 158q12 56 -13 86.5t-107 50.5l-104 26q-90 23 -123 65.5t-18 111.5q18 87 89 139t188 52q101 0 158 -43t51 -140h-58 q5 69 -37.5 102t-124.5 33q-87 0 -140 -36t-67 -103q-12 -55 14.5 -84t97.5 -47l103 -26q97 -24 131.5 -69t18.5 -120q-21 -100 -101 -153t-199 -53z" />
<glyph unicode="&#x161;" horiz-adv-x="467" d="M244 565l-64 111h56l44 -82l77 82h57l-112 -111h-58zM379 132q-15 -74 -77.5 -110.5t-143.5 -36.5q-75 0 -120 33t-39 101h60q-1 -47 31.5 -66.5t82.5 -19.5q61 0 101 25.5t50 69.5q5 25 -1.5 43t-28 29.5t-39 17t-51.5 13.5q-17 4 -23.5 6t-22 6t-22.5 7t-19.5 8.5 t-18.5 11t-14.5 13t-12 16t-6.5 19.5t-2.5 23.5t3.5 27.5q15 70 73 103t131 33q75 0 115 -33t36 -94h-60q0 80 -99 80q-57 0 -95 -23.5t-47 -64.5q-5 -23 1.5 -39.5t27.5 -27.5t37.5 -16t50.5 -13l24 -6t23 -6t23 -7.5t20.5 -9t18.5 -11t15 -13.5t12.5 -17t6.5 -19.5 t2.5 -24t-3.5 -28.5z" />
<glyph unicode="&#x162;" horiz-adv-x="521" d="M215 0l-63 -53q43 -6 63.5 -20.5t11.5 -53.5q-8 -38 -39.5 -61t-70.5 -23q-53 0 -83 34l30 26q24 -26 61 -26q23 0 41 13t23 35q4 18 -2.5 29t-23 15t-27.5 5t-31 1l5 23l63 56h-15l139 650h-208l10 49h473l-10 -49h-207l-139 -650h-1z" />
<glyph unicode="&#x163;" horiz-adv-x="294" d="M82 -53q43 -6 63.5 -20.5t11.5 -53.5q-8 -38 -39.5 -61t-70.5 -23q-53 0 -83 34l30 26q24 -26 61 -26q23 0 41 13t23 35q4 18 -2.5 29t-23 15t-27.5 5t-31 1l5 23l62 54q-38 9 -48.5 39.5t1.5 79.5l70 326h-77l10 47h77l31 148h56l-31 -148h97l-10 -47h-97l-69 -324 q-11 -37 -1.5 -58t48.5 -21q11 0 17 1l-9 -43q-13 -3 -28 -3z" />
<glyph unicode="&#x164;" horiz-adv-x="521" d="M317 749l-64 111h56l44 -82l77 82h57l-112 -111h-58zM216 0h-58l139 650h-208l10 49h473l-10 -49h-207z" />
<glyph unicode="&#x165;" horiz-adv-x="294" d="M393 736q-14 -65 -25.5 -94t-42.5 -77h-16q31 59 46 130h-36l18 82h65zM112 119q-11 -37 -1.5 -58t48.5 -21q11 0 17 1l-9 -43q-15 -3 -30 -3q-60 0 -77.5 29.5t-4.5 92.5l70 326h-77l10 47h77l31 148h56l-31 -148h97l-10 -47h-97z" />
<glyph unicode="&#x166;" horiz-adv-x="521" d="M355 650l-59 -277h132l-10 -48h-132l-70 -325h-58l70 325h-133l10 48h133l59 277h-208l10 49h473l-10 -49h-207z" />
<glyph unicode="&#x167;" horiz-adv-x="294" d="M181 443l-28 -130h97l-10 -46h-97l-31 -148q-11 -37 -1.5 -58t48.5 -21q11 0 17 1l-9 -43q-15 -3 -30 -3q-60 0 -77.5 29.5t-4.5 92.5l32 150h-77l10 46h77l28 130h-77l10 47h77l31 148h56l-31 -148h97l-10 -47h-97z" />
<glyph unicode="&#x16a;" horiz-adv-x="670" d="M318 769l10 47h215l-10 -47h-215zM257 -20q-123 0 -169.5 66t-15.5 215l93 438h58l-92 -434q-27 -126 4.5 -181.5t131.5 -55.5q99 0 155 55.5t83 181.5l92 434h58l-93 -438q-31 -149 -106.5 -215t-198.5 -66z" />
<glyph unicode="&#x16b;" horiz-adv-x="545" d="M214 577l10 47h215l-10 -47h-215zM346 79q-70 -94 -182 -94q-53 0 -88.5 26t-37.5 75q-3 37 13 113l62 291h56l-63 -296q-19 -89 1 -127t81 -38q55 0 99 33.5t66 87.5q14 31 28 97l52 243h56l-105 -490h-56z" />
<glyph unicode="&#x16e;" horiz-adv-x="670" d="M526 816q-7 -36 -40 -61.5t-69 -25.5t-57.5 25t-13.5 61q7 36 39.5 61.5t68.5 25.5t57.5 -25t14.5 -61zM493 815q5 24 -8 41t-37 17q-23 0 -44 -17t-25 -40q-5 -23 8.5 -40t36.5 -17t43.5 16.5t25.5 39.5zM257 -20q-123 0 -169.5 66t-15.5 215l93 438h58l-92 -434 q-27 -126 4.5 -181.5t131.5 -55.5q99 0 155 55.5t83 181.5l92 434h58l-93 -438q-31 -149 -106.5 -215t-198.5 -66z" />
<glyph unicode="&#x16f;" horiz-adv-x="545" d="M422 624q-7 -36 -39.5 -61.5t-68.5 -25.5t-58 25t-14 61q7 36 39.5 61.5t68.5 25.5t57.5 -25t14.5 -61zM389 623q5 24 -8 41t-37 17q-23 0 -43.5 -17t-25.5 -40t8.5 -40t36.5 -17t43.5 16.5t25.5 39.5zM346 79q-70 -94 -182 -94q-53 0 -88.5 26t-37.5 75q-3 37 13 113 l62 291h56l-63 -296q-19 -89 1 -127t81 -38q55 0 99 33.5t66 87.5q14 31 28 97l52 243h56l-105 -490h-56z" />
<glyph unicode="&#x170;" horiz-adv-x="670" d="M343 754h-44l106 106h85zM482 754h-44l105 106h85zM257 -20q-123 0 -169.5 66t-15.5 215l93 438h58l-92 -434q-27 -126 4.5 -181.5t131.5 -55.5q99 0 155 55.5t83 181.5l92 434h58l-93 -438q-31 -149 -106.5 -215t-198.5 -66z" />
<glyph unicode="&#x171;" horiz-adv-x="545" d="M239 562h-44l106 106h85zM378 562h-44l105 106h85zM346 79q-70 -94 -182 -94q-53 0 -88.5 26t-37.5 75q-3 37 13 113l62 291h56l-63 -296q-19 -89 1 -127t81 -38q55 0 99 33.5t66 87.5q14 31 28 97l52 243h56l-105 -490h-56z" />
<glyph unicode="&#x172;" horiz-adv-x="670" d="M655 699l-93 -438q-29 -133 -91.5 -199.5t-161.5 -78.5q-65 -50 -43 -100q10 -25 26 -37l-48 -27q-23 15 -35 46q-22 57 43 115q-120 2 -165.5 68t-14.5 213l93 438h58l-92 -434q-27 -126 4.5 -181.5t131.5 -55.5q99 0 155 55.5t83 181.5l92 434h58z" />
<glyph unicode="&#x173;" horiz-adv-x="545" d="M384 0q-93 -58 -67 -117q10 -25 26 -37l-48 -27q-23 15 -35 46q-15 36 6 71.5t62 63.5l18 79q-70 -94 -182 -94q-53 0 -88.5 26t-37.5 75q-3 37 13 113l62 291h56l-63 -296q-19 -89 1 -127t81 -38q55 0 99 33.5t66 87.5q14 31 28 97l52 243h56z" />
<glyph unicode="&#x174;" horiz-adv-x="952" d="M579 830l-78 -81h-56l110 111h58l66 -111h-57zM583 699l58 -643l311 643h58l-350 -699h-66l-56 642l-326 -642h-67l-53 699h60l40 -644l326 644h65z" />
<glyph unicode="&#x175;" horiz-adv-x="707" d="M416 637l-78 -81h-56l110 111h58l66 -111h-57zM363 490h47l42 -416l216 416h53l-263 -490h-49l-45 406l-220 -406h-50l-46 490h58l33 -416z" />
<glyph unicode="&#x176;" horiz-adv-x="562" d="M383 830l-78 -81h-56l110 111h58l66 -111h-57zM303 323l-69 -323h-59l69 323l-149 376h69l122 -316l260 316h71z" />
<glyph unicode="&#x177;" horiz-adv-x="463" d="M216 556h-56l110 111h58l66 -111h-57l-43 81zM477 490l-350 -602q-71 -120 -163 -120q-22 0 -37 4l14 46q16 -4 28 -4q41 0 64 22t49 69l59 100l-93 485h58l75 -411l240 411h56z" />
<glyph unicode="&#x178;" horiz-adv-x="562" d="M251 759l17 81h74l-17 -81h-74zM410 759l17 81h74l-17 -81h-74zM303 323l-69 -323h-59l69 323l-149 376h69l122 -316l260 316h71z" />
<glyph unicode="&#x179;" horiz-adv-x="590" d="M390 754h-40l59 106h80zM593 652q-356 -402 -537 -605h418l-10 -47h-496l9 41l544 609h-379l10 49h451z" />
<glyph unicode="&#x17a;" horiz-adv-x="452" d="M279 561h-40l59 106h80zM333 46l-10 -46h-342l10 44l349 400h-248l10 46h320l-8 -37l-356 -407h275z" />
<glyph unicode="&#x17b;" horiz-adv-x="590" d="M347 759l17 81h74l-17 -81h-74zM593 652q-356 -402 -537 -605h418l-10 -47h-496l9 41l544 609h-379l10 49h451z" />
<glyph unicode="&#x17c;" horiz-adv-x="452" d="M236 566l17 81h74l-17 -81h-74zM333 46l-10 -46h-342l10 44l349 400h-248l10 46h320l-8 -37l-356 -407h275z" />
<glyph unicode="&#x17d;" horiz-adv-x="590" d="M352 749l-64 111h56l44 -82l77 82h57l-112 -111h-58zM593 652q-356 -402 -537 -605h418l-10 -47h-496l9 41l544 609h-379l10 49h451z" />
<glyph unicode="&#x17e;" horiz-adv-x="452" d="M241 556l-64 111h56l44 -82l77 82h57l-112 -111h-58zM333 46l-10 -46h-342l10 44l349 400h-248l10 46h320l-8 -37l-356 -407h275z" />
<glyph unicode="&#x192;" horiz-adv-x="495" d="M521 665q-26 7 -50 7q-83 0 -120 -99l-56 -150h137l-9 -44h-146l-137 -375q-22 -62 -58.5 -93.5t-96.5 -31.5q-21 0 -42 3l9 43q20 -2 31 -2q72 0 103 85l134 371h-94l9 44h102l61 158q26 66 66 100.5t104 34.5q44 0 62 -8z" />
<glyph unicode="&#x2c6;" horiz-adv-x="348" d="M239 651l-78 -81h-56l110 111h58l66 -111h-57z" />
<glyph unicode="&#x2c7;" horiz-adv-x="348" d="M192 570l-64 111h56l44 -82l77 82h57l-112 -111h-58z" />
<glyph unicode="&#x2d8;" horiz-adv-x="366" d="M381 684q-16 -50 -58.5 -82.5t-92.5 -32.5t-78 32.5t-23 82.5h42q-2 -32 16.5 -54.5t50.5 -22.5q33 0 62 22t40 55h41z" />
<glyph unicode="&#x2d9;" horiz-adv-x="188" d="M111 600l17 81h74l-17 -81h-74z" />
<glyph unicode="&#x2da;" horiz-adv-x="294" d="M303 657q-7 -36 -39.5 -61.5t-68.5 -25.5t-58 25t-14 61q7 36 39.5 61.5t68.5 25.5t57.5 -25t14.5 -61zM270 656q5 24 -8 41t-37 17q-23 0 -43.5 -17t-25.5 -40t8.5 -40t36.5 -17t43.5 16.5t25.5 39.5z" />
<glyph unicode="&#x2db;" horiz-adv-x="267" d="M10 9l28 -9q-46 -98 18 -117q27 -8 48 -7l-25 -47q-30 -6 -63 6q-23 8 -34 26.5t-9.5 41.5t9 46t20.5 46z" />
<glyph unicode="&#x2dc;" horiz-adv-x="402" d="M416 680q-40 -79 -99 -79q-21 0 -57.5 16t-55.5 16q-34 0 -55 -36h-39l1 2q19 39 42 60t58 21q21 0 58 -16t55 -16q34 0 52 33z" />
<glyph unicode="&#x2dd;" horiz-adv-x="421" d="M150 575h-44l106 106h85zM289 575h-44l105 106h85z" />
<glyph unicode="&#x300;" horiz-adv-x="0" d="M-38 575l-55 106h81l14 -106h-40z" />
<glyph unicode="&#x301;" horiz-adv-x="0" d="M-96 575h-40l59 106h80z" />
<glyph unicode="&#x302;" horiz-adv-x="0" d="M-109 651l-78 -81h-56l110 111h58l66 -111h-57z" />
<glyph unicode="&#x303;" horiz-adv-x="0" d="M10 660q-40 -79 -99 -79q-21 0 -57.5 16t-55.5 16q-34 0 -55 -36h-39v2q20 39 43 60t58 21q21 0 58 -16t55 -16q34 0 52 33z" />
<glyph unicode="&#x304;" horiz-adv-x="0" d="M-252 590l10 47h215l-10 -47h-215z" />
<glyph unicode="&#x306;" horiz-adv-x="0" d="M15 684q-16 -50 -58.5 -82.5t-92.5 -32.5t-78 32.5t-23 82.5h42q-2 -32 16.5 -54.5t50.5 -22.5q33 0 62 22t40 55h41z" />
<glyph unicode="&#x307;" horiz-adv-x="0" d="M-81 580l17 81h74l-17 -81h-74z" />
<glyph unicode="&#x308;" horiz-adv-x="0" d="M-260 580l17 81h74l-17 -81h-74zM-101 580l17 81h74l-17 -81h-74z" />
<glyph unicode="&#x30a;" horiz-adv-x="0" d="M5 637q-7 -36 -40 -61.5t-69 -25.5t-57.5 25t-13.5 61q7 36 39.5 61.5t68.5 25.5t57.5 -25t14.5 -61zM-28 636q5 24 -8 41t-37 17q-23 0 -44 -17t-25 -40q-5 -23 8.5 -40t36.5 -17t43.5 16.5t25.5 39.5z" />
<glyph unicode="&#x30b;" horiz-adv-x="0" d="M-241 575h-44l106 106h85zM-102 575h-44l105 106h85z" />
<glyph unicode="&#x30c;" horiz-adv-x="0" d="M-156 570l-64 111h56l44 -82l77 82h57l-112 -111h-58z" />
<glyph unicode="&#x327;" horiz-adv-x="0" d="M-158 -127q-8 -38 -39.5 -61t-70.5 -23q-53 0 -83 34l30 26q24 -26 61 -26q23 0 41 13t23 35q4 18 -2.5 29t-23 15t-27.5 5t-31 1l5 23l63 56h42l-63 -53q43 -6 63.5 -20.5t11.5 -53.5z" />
<glyph unicode="&#x328;" horiz-adv-x="0" d="M-187 26l11 -26q-93 -58 -67 -117q10 -25 26 -37l-48 -27q-23 15 -35 46q-18 43 14 84t84 69z" />
<glyph unicode="&#x335;" horiz-adv-x="0" d="M-35 415l-11 -48h-323l11 48h323z" />
<glyph unicode="&#x1e80;" horiz-adv-x="952" d="M556 754l-55 106h81l14 -106h-40zM583 699l58 -643l311 643h58l-350 -699h-66l-56 642l-326 -642h-67l-53 699h60l40 -644l326 644h65z" />
<glyph unicode="&#x1e81;" horiz-adv-x="707" d="M393 561l-55 106h81l14 -106h-40zM363 490h47l42 -416l216 416h53l-263 -490h-49l-45 406l-220 -406h-50l-46 490h58l33 -416z" />
<glyph unicode="&#x1e82;" horiz-adv-x="952" d="M570 754h-40l59 106h80zM583 699l58 -643l311 643h58l-350 -699h-66l-56 642l-326 -642h-67l-53 699h60l40 -644l326 644h65z" />
<glyph unicode="&#x1e83;" horiz-adv-x="707" d="M407 561h-40l59 106h80zM363 490h47l42 -416l216 416h53l-263 -490h-49l-45 406l-220 -406h-50l-46 490h58l33 -416z" />
<glyph unicode="&#x1e84;" horiz-adv-x="952" d="M447 759l17 81h74l-17 -81h-74zM606 759l17 81h74l-17 -81h-74zM583 699l58 -643l311 643h58l-350 -699h-66l-56 642l-326 -642h-67l-53 699h60l40 -644l326 644h65z" />
<glyph unicode="&#x1e85;" horiz-adv-x="707" d="M284 566l17 81h74l-17 -81h-74zM443 566l17 81h74l-17 -81h-74zM363 490h47l42 -416l216 416h53l-263 -490h-49l-45 406l-220 -406h-50l-46 490h58l33 -416z" />
<glyph unicode="&#x1ef2;" horiz-adv-x="562" d="M360 754l-55 106h81l14 -106h-40zM303 323l-69 -323h-59l69 323l-149 376h69l122 -316l260 316h71z" />
<glyph unicode="&#x1ef3;" horiz-adv-x="463" d="M271 561l-55 106h81l14 -106h-40zM477 490l-350 -602q-71 -120 -163 -120q-22 0 -37 4l14 46q16 -4 28 -4q41 0 64 22t49 69l59 100l-93 485h58l75 -411l240 411h56z" />
<glyph unicode="&#x2000;" horiz-adv-x="451" />
<glyph unicode="&#x2001;" horiz-adv-x="902" />
<glyph unicode="&#x2002;" horiz-adv-x="451" />
<glyph unicode="&#x2003;" horiz-adv-x="902" />
<glyph unicode="&#x2004;" horiz-adv-x="300" />
<glyph unicode="&#x2005;" horiz-adv-x="225" />
<glyph unicode="&#x2006;" horiz-adv-x="150" />
<glyph unicode="&#x2007;" horiz-adv-x="150" />
<glyph unicode="&#x2008;" horiz-adv-x="112" />
<glyph unicode="&#x2009;" horiz-adv-x="180" />
<glyph unicode="&#x200a;" horiz-adv-x="50" />
<glyph unicode="&#x2010;" horiz-adv-x="406" d="M41 307l12 58h308l-12 -58h-308z" />
<glyph unicode="&#x2011;" horiz-adv-x="406" d="M41 307l12 58h308l-12 -58h-308z" />
<glyph unicode="&#x2012;" horiz-adv-x="406" d="M41 307l12 58h308l-12 -58h-308z" />
<glyph unicode="&#x2013;" horiz-adv-x="493" d="M-8 305l12 59h493l-13 -58z" />
<glyph unicode="&#x2014;" horiz-adv-x="986" d="M-7 307l11 59h986l-12 -58z" />
<glyph unicode="&#x2018;" horiz-adv-x="247" d="M177 501h-60l98 198h23z" />
<glyph unicode="&#x2019;" horiz-adv-x="247" d="M140 501h-23l60 198h61z" />
<glyph unicode="&#x201a;" horiz-adv-x="253" d="M12 -116h-23l60 198h61z" />
<glyph unicode="&#x201c;" horiz-adv-x="343" d="M177 501h-60l98 198h23zM274 501h-61l98 198h23z" />
<glyph unicode="&#x201d;" horiz-adv-x="343" d="M140 501h-23l60 198h61zM236 501h-23l61 198h60z" />
<glyph unicode="&#x201e;" horiz-adv-x="349" d="M12 -116h-23l60 198h61zM108 -116h-23l61 198h60z" />
<glyph unicode="&#x2020;" horiz-adv-x="447" d="M323 699l-35 -163h127l-9 -43h-127l-105 -493h-49l105 493h-127l9 43h127l35 163h49z" />
<glyph unicode="&#x2021;" horiz-adv-x="447" d="M103 493l9 43h127l35 163h49l-35 -163h127l-9 -43h-127l-62 -291h127l-9 -43h-127l-34 -159h-49l34 159h-127l9 43h127l62 291h-127z" />
<glyph unicode="&#x2022;" horiz-adv-x="318" d="M257 376q-7 -38 -40 -65t-71 -27t-59.5 27t-13.5 65t41 65t71 27t59 -27t13 -65z" />
<glyph unicode="&#x2026;" horiz-adv-x="499" d="M-7 0l18 82h64l-18 -82h-64zM144 0l18 82h64l-18 -82h-64zM294 0l18 82h64l-18 -82h-64z" />
<glyph unicode="&#x202f;" horiz-adv-x="180" />
<glyph unicode="&#x2030;" horiz-adv-x="1233" d="M390 493q-11 -51 -33 -98t-65 -85.5t-95 -38.5q-40 0 -65 21.5t-33.5 56.5t-8.5 71.5t8 72.5q8 37 23 73.5t38.5 71.5t58 56.5t74.5 21.5t65 -21.5t33.5 -56.5t8 -71.5t-8.5 -73.5zM238 0h-39l434 699h39zM340 493q6 27 8 54t-0.5 58t-19 50t-45.5 19q-38 0 -68.5 -35 t-44.5 -71t-22 -75q-6 -27 -7.5 -54t1 -57.5t19 -49.5t45.5 -19q38 0 68.5 34.5t44 71t21.5 74.5zM774 209q-8 -37 -23 -73t-38 -71t-57.5 -57t-74.5 -22t-65 21.5t-33.5 56.5t-8 71.5t8.5 73.5q11 51 33 98.5t65 86t95 38.5q40 0 65 -22t33.5 -57t8 -71t-8.5 -73zM1137 209 q-8 -36 -23 -72.5t-38.5 -71.5t-58 -57t-74.5 -22t-65 21.5t-33.5 56.5t-8 71.5t8.5 73.5q11 51 33 98.5t65 86t95 38.5q40 0 65 -22t33.5 -57t8.5 -71.5t-8 -72.5zM724 209q6 27 7.5 54t-1 57.5t-19 49.5t-44.5 19q-38 0 -68.5 -34.5t-44 -71t-21.5 -74.5q-6 -27 -8 -54 t1 -57.5t19.5 -49.5t45.5 -19q28 0 52.5 19t40 49.5t25 57.5t15.5 54zM1087 209q6 27 7.5 54t-1 57.5t-19 49.5t-45.5 19q-38 0 -68.5 -34.5t-44 -71t-21.5 -74.5q-6 -27 -8 -54t1 -57.5t19.5 -49.5t45.5 -19t53.5 19t40 49.5t25 57.5t15.5 54z" />
<glyph unicode="&#x2039;" horiz-adv-x="264" d="M191 436h55l-180 -219l87 -217h-55l-88 217z" />
<glyph unicode="&#x203a;" horiz-adv-x="264" d="M145 217l-89 219h56l88 -219l-181 -217h-56z" />
<glyph unicode="&#x2044;" horiz-adv-x="319" d="M-38 0h-39l435 699h39z" />
<glyph unicode="&#x205f;" horiz-adv-x="225" />
<glyph unicode="&#x20ac;" horiz-adv-x="726" d="M669 592q-60 78 -166 78q-103 0 -187.5 -69t-127.5 -172h289l-11 -48h-296q-2 -8 -7 -31q-8 -38 -8 -44h295l-10 -48h-286q5 -98 61 -163t154 -65q106 0 198 75l30 -37q-111 -87 -241 -87q-125 0 -195 78t-72 199h-81l10 48h74q1 14 7 44q3 13 8 31h-73l11 48h79 q50 125 156 207.5t235 82.5q128 0 203 -87z" />
<glyph unicode="&#x2122;" horiz-adv-x="853" d="M284 661l-83 -389h-44l83 389h-124l8 38h292l-8 -38h-124zM609 387l221 312h49l-91 -427h-44l75 350l-232 -327l-93 327l-75 -350h-41l91 427h52z" />
<glyph unicode="&#x2212;" horiz-adv-x="680" d="M51 317l12 58h566l-12 -58h-566z" />
<glyph unicode="&#x221e;" horiz-adv-x="777" d="M720 347q-12 -60 -61.5 -103t-112.5 -43q-76 0 -139 78q-13 15 -25 34q-67 -56 -93 -72q-63 -40 -120 -40q-62 0 -93 43t-19 103q12 59 61.5 102.5t112.5 43.5q75 0 140 -78l25 -34q55 50 93 73q61 39 119 39q63 0 93.5 -43.5t18.5 -102.5zM357 347q-7 10 -21 28 q-13 17 -32 36q-43 36 -84 36q-42 0 -73 -28.5t-40 -71.5q-9 -42 10 -71t61 -29q41 0 98 36q25 17 81 64zM670 347q9 42 -10 71t-61 29t-97 -36q-30 -19 -82 -64q32 -43 55 -64q39 -36 82 -36q42 0 73 28.5t40 71.5z" />
<glyph unicode="&#x2264;" horiz-adv-x="547" d="M67 393l478 213l-12 -57l-408 -180l332 -179l-13 -58l-387 214zM-16 0l13 58h429l-13 -58h-429z" />
<glyph unicode="&#x2265;" horiz-adv-x="547" d="M24 190l408 179l-332 180l12 57l388 -213l-10 -47l-479 -214zM-14 0l13 58h429l-13 -58h-429z" />
<glyph unicode="&#x25ca;" horiz-adv-x="630" d="M535 496q37 -68 19 -149q-16 -76 -83 -147l55 -71l-51 -40l-53 70q-46 -28 -80 -39.5t-79 -11.5t-73 11.5t-63 39.5l-84 -68l-32 40l84 69q-19 43 -24 68.5t3 79.5q16 76 84 148l-54 68l49 40l54 -68q47 28 81 40t79 12q75 0 137 -51l82 68l33 -41zM500 348 q17 79 -24 133t-119 54q-80 0 -145.5 -53.5t-82.5 -133.5q-16 -79 26.5 -133t121.5 -54t142.5 54t80.5 133z" />
<glyph unicode="&#x25fc;" horiz-adv-x="490" d="M0 490h490v-490h-490v490z" />
<glyph d="M381 88q-78 -102 -197 -102q-53 0 -90.5 22t-54 58.5t-21 83.5t7.5 96q22 106 96 182.5t175 76.5q119 0 151 -103l19 88h49l-105 -490h-49zM411 246q18 86 -11.5 148.5t-111.5 62.5q-80 0 -134 -63t-72 -148q-9 -53 -6 -99.5t35 -79t87 -32.5q82 0 138.5 62.5t74.5 148.5 z" />
<glyph d="M333 571h-40l59 106h80zM381 88q-78 -102 -197 -102q-53 0 -90.5 22t-54 58.5t-21 83.5t7.5 96q22 106 96 182.5t175 76.5q119 0 151 -103l19 88h49l-105 -490h-49zM411 246q18 86 -11.5 148.5t-111.5 62.5q-80 0 -134 -63t-72 -148q-9 -53 -6 -99.5t35 -79t87 -32.5 q82 0 138.5 62.5t74.5 148.5z" />
<glyph d="M475 680q-16 -50 -58 -82.5t-92 -32.5t-78.5 32.5t-23.5 82.5h42q-2 -32 17 -54.5t51 -22.5q33 0 61.5 22t39.5 55h41zM381 88q-78 -102 -197 -102q-53 0 -90.5 22t-54 58.5t-21 83.5t7.5 96q22 106 96 182.5t175 76.5q119 0 151 -103l19 88h49l-105 -490h-49zM411 246 q18 86 -11.5 148.5t-111.5 62.5q-80 0 -134 -63t-72 -148q-9 -53 -6 -99.5t35 -79t87 -32.5q82 0 138.5 62.5t74.5 148.5z" />
<glyph d="M342 647l-78 -81h-56l110 111h58l66 -111h-57zM381 88q-78 -102 -197 -102q-53 0 -90.5 22t-54 58.5t-21 83.5t7.5 96q22 106 96 182.5t175 76.5q119 0 151 -103l19 88h49l-105 -490h-49zM411 246q18 86 -11.5 148.5t-111.5 62.5q-80 0 -134 -63t-72 -148 q-9 -53 -6 -99.5t35 -79t87 -32.5q82 0 138.5 62.5t74.5 148.5z" />
<glyph d="M210 576l17 81h74l-17 -81h-74zM369 576l17 81h74l-17 -81h-74zM381 88q-78 -102 -197 -102q-53 0 -90.5 22t-54 58.5t-21 83.5t7.5 96q22 106 96 182.5t175 76.5q119 0 151 -103l19 88h49l-105 -490h-49zM411 246q18 86 -11.5 148.5t-111.5 62.5q-80 0 -134 -63 t-72 -148q-9 -53 -6 -99.5t35 -79t87 -32.5q82 0 138.5 62.5t74.5 148.5z" />
<glyph d="M319 571l-55 106h81l14 -106h-40zM381 88q-78 -102 -197 -102q-53 0 -90.5 22t-54 58.5t-21 83.5t7.5 96q22 106 96 182.5t175 76.5q119 0 151 -103l19 88h49l-105 -490h-49zM411 246q18 86 -11.5 148.5t-111.5 62.5q-80 0 -134 -63t-72 -148q-9 -53 -6 -99.5t35 -79 t87 -32.5q82 0 138.5 62.5t74.5 148.5z" />
<glyph d="M221 586l10 47h215l-10 -47h-215zM381 88q-78 -102 -197 -102q-53 0 -90.5 22t-54 58.5t-21 83.5t7.5 96q22 106 96 182.5t175 76.5q119 0 151 -103l19 88h49l-105 -490h-49zM411 246q18 86 -11.5 148.5t-111.5 62.5q-80 0 -134 -63t-72 -148q-9 -53 -6 -99.5t35 -79 t87 -32.5q82 0 138.5 62.5t74.5 148.5z" />
<glyph d="M411 0q-93 -58 -67 -117q10 -25 26 -37l-48 -27q-23 15 -35 46q-16 38 8 74.5t68 65.5l18 83q-78 -102 -197 -102q-53 0 -90.5 22t-54 58.5t-21 83.5t7.5 96q22 106 96 182.5t175 76.5q119 0 151 -103l19 88h49zM198 35q82 0 138.5 62.5t74.5 148.5t-11.5 148.5 t-111.5 62.5q-80 0 -134 -63t-72 -148q-9 -53 -6 -99.5t35 -79t87 -32.5z" />
<glyph d="M429 633q-7 -36 -40 -61.5t-69 -25.5t-57.5 25t-13.5 61q7 36 39.5 61.5t68.5 25.5t57.5 -25t14.5 -61zM396 632q5 24 -8 41t-37 17q-23 0 -43.5 -17t-25.5 -40t8.5 -40t36.5 -17t43.5 16.5t25.5 39.5zM381 88q-78 -102 -197 -102q-53 0 -90.5 22t-54 58.5t-21 83.5 t7.5 96q22 106 96 182.5t175 76.5q119 0 151 -103l19 88h49l-105 -490h-49zM411 246q18 86 -11.5 148.5t-111.5 62.5q-80 0 -134 -63t-72 -148q-9 -53 -6 -99.5t35 -79t87 -32.5q82 0 138.5 62.5t74.5 148.5z" />
<glyph d="M494 656q-40 -79 -99 -79q-21 0 -57.5 16t-55.5 16q-34 0 -55 -36h-39l1 2q19 39 42 60t58 21q21 0 58 -16t55 -16q34 0 52 33zM381 88q-78 -102 -197 -102q-53 0 -90.5 22t-54 58.5t-21 83.5t7.5 96q22 106 96 182.5t175 76.5q119 0 151 -103l19 88h49l-105 -490h-49z M411 246q18 86 -11.5 148.5t-111.5 62.5q-80 0 -134 -63t-72 -148q-9 -53 -6 -99.5t35 -79t87 -32.5q82 0 138.5 62.5t74.5 148.5z" />
<glyph horiz-adv-x="230" d="M13 0l149 699h56l-149 -699h-56z" />
<glyph horiz-adv-x="230" d="M210 754h-40l59 106h80zM13 0l149 699h56l-149 -699h-56z" />
<glyph horiz-adv-x="230" d="M339 659q-13 -65 -24.5 -94t-43.5 -77h-16q32 58 47 130h-36l17 82h65zM13 0l149 699h56l-149 -699h-56z" />
<glyph horiz-adv-x="230" d="M13 0l149 699h56l-149 -699h-56zM52 -109q-13 -65 -24.5 -94t-43.5 -77h-16q32 62 47 130h-36l17 82h65z" />
<glyph horiz-adv-x="230" d="M233 391l-92 -54l-72 -337h-56l64 299l-92 -54l11 51l92 54l74 349h56l-66 -311l91 54z" />
</font>
</defs>
</svg>
