<svg id="Layer_1" data-name="Layer 1" xmlns="http://www.w3.org/2000/svg" viewBox="0 0 576 576"><defs><style>.cls-1{fill:#fff;}.cls-2{fill:#6c8d6e;}.cls-3{fill:#acd7ab;}</style></defs><title>Artboard 1</title><path d="M568.8,7.2V266.35c0,167-135.44,302.45-302.45,302.45H7.2V7.2Z"/><path class="cls-1" d="M70.24,456a10.7,10.7,0,0,1,.76-4,9.79,9.79,0,0,1,2.08-3.22,9.46,9.46,0,0,1,3.15-2.12,10.39,10.39,0,0,1,7.88,0,9.61,9.61,0,0,1,3.16,2.11A9.75,9.75,0,0,1,89.34,452a10.74,10.74,0,0,1,.76,4,10.9,10.9,0,0,1-.74,4,9.29,9.29,0,0,1-5.24,5.26,10.3,10.3,0,0,1-3.95.77,10.13,10.13,0,0,1-3.92-.76,9.51,9.51,0,0,1-3.16-2.09,9.06,9.06,0,0,1-1.19-1.46A10.29,10.29,0,0,1,71,460a9.88,9.88,0,0,1-.57-1.92,10.8,10.8,0,0,1-.19-2.06m3.83,0a7.4,7.4,0,0,0,.45,2.72,6.89,6.89,0,0,0,1.32,2.22,6.08,6.08,0,0,0,1.95,1.47,5.27,5.27,0,0,0,2.37.51,5.57,5.57,0,0,0,4.35-2A7.2,7.2,0,0,0,86.26,456a7.29,7.29,0,0,0-.43-2.75A7.18,7.18,0,0,0,84.52,451a6.17,6.17,0,0,0-2-1.52,5.06,5.06,0,0,0-2.39-.52,5.45,5.45,0,0,0-4.32,2,7.46,7.46,0,0,0-1.78,5"/><polygon class="cls-1" points="100.88 465.48 100.88 446.36 104.35 446.36 104.35 462.25 113.15 462.25 113.15 465.48 100.88 465.48"/><path class="cls-1" d="M124.49,465.48V446.36h7.22c.22,0,.42,0,.6,0l.55,0,.73,0,.74.08.63.13c.29.08.6.17.93.29a8.92,8.92,0,0,1,1,.44,6.91,6.91,0,0,1,1,.6,5.26,5.26,0,0,1,.88.78q2.56,2.52,2.56,7.16,0,5-2.9,7.49a7.57,7.57,0,0,1-3,1.65,14.77,14.77,0,0,1-3.84.44Zm3.47-3.23h3a16.2,16.2,0,0,0,2.29-.13,3.88,3.88,0,0,0,.85-.18,4.36,4.36,0,0,0,.8-.35c1.71-.91,2.56-2.79,2.56-5.63,0-3.34-1.17-5.35-3.52-6a7.74,7.74,0,0,0-1.53-.25l-.72,0H128Z"/><path class="cls-1" d="M162.84,456a11,11,0,0,1,.19-2.08,10.17,10.17,0,0,1,.57-1.95,11.09,11.09,0,0,1,.89-1.75,9,9,0,0,1,1.19-1.49,9.57,9.57,0,0,1,3.16-2.12,10,10,0,0,1,3.95-.78,9.78,9.78,0,0,1,6,1.88,8.83,8.83,0,0,1,3.38,5h-4a5.38,5.38,0,0,0-2.06-2.81,5.75,5.75,0,0,0-3.32-1,5.49,5.49,0,0,0-4.34,2,7.57,7.57,0,0,0-1.72,5.11,7.46,7.46,0,0,0,1.72,5.09,5.46,5.46,0,0,0,4.34,2,5.7,5.7,0,0,0,3.32-1,5.44,5.44,0,0,0,2.06-2.78h4a8.85,8.85,0,0,1-3.38,5,10.39,10.39,0,0,1-11,.53,9.4,9.4,0,0,1-3.57-3.67,10.38,10.38,0,0,1-1.29-5.17"/><polygon class="cls-1" points="193.05 465.48 193.05 446.36 196.5 446.36 196.5 454.05 205.21 454.05 205.21 446.36 208.66 446.36 208.66 465.48 205.21 465.48 205.21 457.28 196.5 457.28 196.5 465.48 193.05 465.48"/><polygon class="cls-1" points="221.47 465.48 221.47 446.36 235.03 446.36 235.03 449.59 224.97 449.59 224.97 453.99 233.72 453.99 233.72 457.28 224.97 457.28 224.97 462.23 235.34 462.23 235.34 465.48 221.47 465.48"/><polygon class="cls-1" points="247.16 465.48 247.16 446.36 250.63 446.36 250.63 462.25 259.43 462.25 259.43 465.48 247.16 465.48"/><path class="cls-1" d="M272.63,458.86c0,.05,0,.14,0,.27s0,.23,0,.29a2.64,2.64,0,0,0,.14.78,3.25,3.25,0,0,0,1,1.67,5,5,0,0,0,3.37,1,5.8,5.8,0,0,0,1.65-.21,3.59,3.59,0,0,0,1.24-.58,2.72,2.72,0,0,0,.78-.94,2.81,2.81,0,0,0,.27-1.25A2.27,2.27,0,0,0,281,459a1.72,1.72,0,0,0-.53-.66,3.49,3.49,0,0,0-.93-.51,8.18,8.18,0,0,0-1.37-.37l-1.55-.37c-.78-.17-1.52-.33-2.22-.52a8.7,8.7,0,0,1-2.22-.92,4.56,4.56,0,0,1-2.38-4.22,4.9,4.9,0,0,1,1.86-3.9,7.66,7.66,0,0,1,5.2-1.65,8.64,8.64,0,0,1,5.19,1.37,6.3,6.3,0,0,1,1.14,1.06,5.75,5.75,0,0,1,.76,1.18,5.85,5.85,0,0,1,.44,1.29,8.52,8.52,0,0,1,.19,1.38h-3.62a3.19,3.19,0,0,0-1.17-2.55,4.82,4.82,0,0,0-2.88-.73,6.46,6.46,0,0,0-1.63.19,3,3,0,0,0-1.31.73,1.78,1.78,0,0,0-.56,1.32,1.72,1.72,0,0,0,.35,1,2.45,2.45,0,0,0,1,.68,7.65,7.65,0,0,0,.83.32c.25.08.58.16,1,.26l2.56.6a13.48,13.48,0,0,1,2.32.68,6.24,6.24,0,0,1,1.83,1.1,4.29,4.29,0,0,1,1.07,1.37,6.66,6.66,0,0,1,.47,1.32,5.09,5.09,0,0,1,.14,1.19,5.49,5.49,0,0,1-2.57,4.83,9.06,9.06,0,0,1-5.22,1.37c-.4,0-.8,0-1.2-.05a14.37,14.37,0,0,1-1.45-.25,9.59,9.59,0,0,1-1.58-.5,6.75,6.75,0,0,1-1.47-.86,5.08,5.08,0,0,1-1-.89,5.23,5.23,0,0,1-.78-1.19,7,7,0,0,1-.51-1.5,8.56,8.56,0,0,1-.2-1.85Z"/><polygon class="cls-1" points="296.76 465.48 296.76 446.36 310.32 446.36 310.32 449.59 300.26 449.59 300.26 453.99 309.01 453.99 309.01 457.28 300.26 457.28 300.26 462.23 310.63 462.23 310.63 465.48 296.76 465.48"/><path class="cls-1" d="M321.06,465.49l7.15-19.13h3.6L339,465.49h-3.83l-1.73-4.71h-7l-1.67,4.71Zm6.49-7.94h4.68L329.88,451Z"/><path class="cls-2" d="M138.56,129.91l-.14.65a11.58,11.58,0,0,1-3.45,5.54,9.56,9.56,0,0,1-6.47,2,11.57,11.57,0,0,1-8.49-3.16,15.32,15.32,0,0,1-4-9.13h38.19v-3.6a42.88,42.88,0,0,0-1-10.29,27.4,27.4,0,0,0-4-9.35,23.33,23.33,0,0,0-6.33-6.4,27.8,27.8,0,0,0-7.34-3.31,29.35,29.35,0,0,0-18,.72,26.78,26.78,0,0,0-8.92,5.25,22.37,22.37,0,0,0-5.25,6.69V93.08H92.6V86.61c0-3.09,1.29-4.53,4.17-4.53a32.13,32.13,0,0,1,6.33,1.08l1.15.29V71.21l-.58-.22a24.21,24.21,0,0,0-9.06-1.65,21.79,21.79,0,0,0-7.12,1.08A13.9,13.9,0,0,0,78.57,79a20.13,20.13,0,0,0-1.15,7.19v6.91h-8.2V106h8.2V149.4H92.6V106h10.57a18.25,18.25,0,0,0-.94,2.09,32.87,32.87,0,0,0-2.37,12.87c0,9.13,2.52,16.54,7.55,21.94S119.36,151,128,151a27.83,27.83,0,0,0,16-4.82c4.67-3.16,8.13-8.27,10.07-15.1l.36-1.15Zm-10.93-25.32a9.89,9.89,0,0,1,7,2.66,11.93,11.93,0,0,1,3.38,6.62H116.77C118.35,107.61,121.95,104.59,127.63,104.59Z"/><path class="cls-2" d="M190.2,93.22v14.24l-1.08-.29a26.65,26.65,0,0,0-5.75-.79c-4,0-6.83,1.44-8.63,4.32a9,9,0,0,0-1.08,2.95c-.22,1.15-.36,2.23-.43,3.09V149.4H158V93.08h14.67V97a12.15,12.15,0,0,1,10.29-4.82,22.71,22.71,0,0,1,6.62.86Z"/><path class="cls-2" d="M269.25,117.1V149.4H254.07V117.1a38.35,38.35,0,0,0-.22-4.32,17.23,17.23,0,0,0-1-3.88,5.21,5.21,0,0,0-2.09-2.81,6.56,6.56,0,0,0-3.74-1,6.68,6.68,0,0,0-3.88,1.08A6.23,6.23,0,0,0,240.7,109a23,23,0,0,0-1.29,4,21.09,21.09,0,0,0-.43,4.39V149.4H223.79V117.1a38,38,0,0,0-.22-4.39,17.25,17.25,0,0,0-.94-3.81,5.58,5.58,0,0,0-2.09-2.81,7,7,0,0,0-3.81-1,6.22,6.22,0,0,0-3.74,1.08,8.08,8.08,0,0,0-2.45,2.73,13.06,13.06,0,0,0-1.37,3.88,21.77,21.77,0,0,0-.43,4.24V149.4H193.58V93.08h14.53V97a18.21,18.21,0,0,1,12.37-5,18.1,18.1,0,0,1,8.85,2.16A16.07,16.07,0,0,1,235,99.48c4.53-5,9.85-7.48,15.82-7.48a19.46,19.46,0,0,1,7.55,1.58,16.12,16.12,0,0,1,6,4.6,18.27,18.27,0,0,1,2.45,4,17.89,17.89,0,0,1,1.44,4.32,35.72,35.72,0,0,1,.79,5C269.18,113.29,269.25,115.16,269.25,117.1Z"/><path class="cls-2" d="M311.4,129.91l-.22.65a11,11,0,0,1-3.38,5.54,9.69,9.69,0,0,1-6.47,2c-3.6,0-6.4-1-8.56-3.16a15.25,15.25,0,0,1-4-9.13H327v-3.6a46.94,46.94,0,0,0-1-10.29,27.4,27.4,0,0,0-4-9.35,22.6,22.6,0,0,0-6.4-6.4,27.38,27.38,0,0,0-7.26-3.31,29.61,29.61,0,0,0-18.05.72,27.51,27.51,0,0,0-8.92,5.25A24.27,24.27,0,0,0,275,108a32.88,32.88,0,0,0-2.37,12.87c0,9.13,2.59,16.54,7.62,21.94S292.2,151,300.75,151a27.89,27.89,0,0,0,16-4.82c4.68-3.16,8.06-8.27,10.07-15.1l.29-1.15Zm-10.93-25.32a10.14,10.14,0,0,1,7,2.66,11.93,11.93,0,0,1,3.38,6.62H289.53C291.19,107.61,294.78,104.59,300.47,104.59Z"/><path class="cls-1" d="M125.76,214.64v32.29H110.58V214.64c0-4.39-.72-7.48-2.09-9.35s-3.45-2.66-6.4-2.66a8.53,8.53,0,0,0-6.76,2.81c-1.94,1.94-2.88,5-2.88,9.06v32.44H77.28V167.81H92.46v26.32a18.45,18.45,0,0,1,12.73-4.6,21.7,21.7,0,0,1,4.89.5,18.86,18.86,0,0,1,4.17,1.29,19.68,19.68,0,0,1,3.45,1.94,29.48,29.48,0,0,1,2.66,2.37,19.82,19.82,0,0,1,4.32,8A47,47,0,0,1,125.76,214.64Z"/><path class="cls-1" d="M167.84,227.44l-.14.65a10.86,10.86,0,0,1-3.45,5.47,9.23,9.23,0,0,1-6.47,2.09,11.57,11.57,0,0,1-8.49-3.16,15.33,15.33,0,0,1-4-9.21h38.19v-3.52a42.88,42.88,0,0,0-1-10.29,26.06,26.06,0,0,0-4-9.35,22.38,22.38,0,0,0-6.33-6.4,27.81,27.81,0,0,0-7.34-3.31,29.93,29.93,0,0,0-18,.65,28.26,28.26,0,0,0-8.92,5.32,24.26,24.26,0,0,0-6.4,9.21,32.87,32.87,0,0,0-2.37,12.87c0,9.13,2.52,16.54,7.55,21.94s11.94,8.13,20.57,8.13a28.38,28.38,0,0,0,16-4.82c4.67-3.16,8.13-8.27,10.07-15.1l.36-1.15ZM156.9,202.12a9.89,9.89,0,0,1,7,2.66,11.93,11.93,0,0,1,3.38,6.62H146C147.62,205.14,151.22,202.12,156.9,202.12Z"/><path class="cls-1" d="M235.81,214.64v32.29H220.63V214.64c0-4.39-.72-7.48-2.09-9.35s-3.45-2.66-6.4-2.66a8.59,8.59,0,0,0-6.83,2.81c-1.87,1.94-2.8,5-2.8,9.06v32.44H187.26V190.61h14.67v3.88c3.38-3.31,7.84-5,13.31-5a21.07,21.07,0,0,1,4.82.5,17.74,17.74,0,0,1,4.17,1.29,19.69,19.69,0,0,1,3.45,1.94,17.34,17.34,0,0,1,2.66,2.37,19.81,19.81,0,0,1,4.32,8A43,43,0,0,1,235.81,214.64Z"/><path class="cls-1" d="M279.39,167.81v26.4c-3.38-3.24-8.13-4.89-14.17-4.89-7.77,0-14.17,2.73-18.92,8.2s-7.19,12.59-7.19,21.36,2.45,16,7.19,21.29,11.15,8.27,18.92,8.27c6.4,0,11.44-1.87,15-5.54v4h14.39V167.81ZM272.06,234a12.73,12.73,0,0,1-5.54,1.15,9.49,9.49,0,0,1-3.88-.86,11.15,11.15,0,0,1-3.52-2.73,11.94,11.94,0,0,1-2.73-5,27.73,27.73,0,0,1,0-15.32,14,14,0,0,1,1.94-4,12.54,12.54,0,0,1,2.45-2.66,9.38,9.38,0,0,1,5.75-1.87,13.83,13.83,0,0,1,5.54,1.08,12.57,12.57,0,0,1,4.1,3.16,16.22,16.22,0,0,1,2.59,5.11,25.17,25.17,0,0,1,.86,6.91,25.92,25.92,0,0,1-.86,6.91,17.94,17.94,0,0,1-2.59,5.11A12.36,12.36,0,0,1,272.06,234Z"/><path class="cls-1" d="M335.14,190.76V205l-1.15-.29c-7.41-1.8-11.8-.58-14.31,3.52a8.4,8.4,0,0,0-1.08,2.95,13.23,13.23,0,0,0-.43,3.09,11.66,11.66,0,0,0-.07,1.65v31H302.91V190.61h14.67v3.88a12.15,12.15,0,0,1,10.29-4.82,23.41,23.41,0,0,1,6.62.86Z"/><rect class="cls-1" x="338.52" y="167.81" width="15.18" height="15.61"/><rect class="cls-1" x="338.52" y="190.61" width="15.18" height="56.32"/><path class="cls-1" d="M412.46,227l-.29,1.15A28.6,28.6,0,0,1,405,241.1c-4.89,4.89-11.36,7.41-19.49,7.41s-14.67-2.52-19.64-7.41a26.13,26.13,0,0,1-6-9.78,37,37,0,0,1,0-24.89,27.38,27.38,0,0,1,6.19-9.78c4.82-4.89,11.44-7.34,19.49-7.34s14.6,2.52,19.56,7.48a27.76,27.76,0,0,1,7,12.08l.36,1.15H396l-.22-.58c-1.87-4.6-5.25-6.83-10.29-6.83a10.92,10.92,0,0,0-5.83,1.44,10.53,10.53,0,0,0-3.6,3.74,16.81,16.81,0,0,0-1.87,5.25,31.85,31.85,0,0,0-.5,5.83,29.77,29.77,0,0,0,.5,5.83,19.43,19.43,0,0,0,1.87,5.18,9.19,9.19,0,0,0,3.6,3.81,11.46,11.46,0,0,0,5.83,1.44c5.18,0,8.56-2.45,10.5-7.55l.22-.58Z"/><polygon class="cls-1" points="443.31 216.29 468.27 246.93 448.42 246.93 431.08 224.78 431.08 246.93 415.91 246.93 415.91 167.81 431.08 167.81 431.08 209.03 448.92 190.61 468.7 190.61 443.31 216.29"/><path class="cls-3" d="M92.6,281.6v6.47h10.79v12.88H92.6v43.52H77.42V300.95h-8.2V288.07h8.2v-6.9A20.13,20.13,0,0,1,78.57,274a13.9,13.9,0,0,1,8.92-8.56,21.78,21.78,0,0,1,7.12-1.08,24.22,24.22,0,0,1,9.06,1.65l.58.22v12.23l-1.15-.29a31.41,31.41,0,0,0-6.33-1.08C93.89,277.07,92.6,278.51,92.6,281.6Z"/><path class="cls-3" d="M152.66,296.7c-.93-2.37-2.95-4.53-5.9-6.4-4-2.3-9.49-3.52-16.54-3.52-11.08,0-18.56,3.31-22.3,9.93a20.17,20.17,0,0,0-2.23,9v.94h15.25l.07-.86a7,7,0,0,1,1.22-4c1.51-1.8,4.24-2.73,8.2-2.73,3.31,0,5.61.65,6.69,1.8a8.13,8.13,0,0,1,1.58,5.11c-1.51.5-3.38,1-5.68,1.58-2.73.58-6.11,1.29-9.93,1.94-6.62,1.15-11.58,3.31-14.89,6.26a15.62,15.62,0,0,0-5,12.08c0,5.54,1.94,9.93,5.68,13.16s8.77,4.75,14.82,4.75q10,0,16-5v3.67h14.24V306.05A29.1,29.1,0,0,0,152.66,296.7Zm-26,36.54a10.87,10.87,0,0,1-3.16-.43,9.28,9.28,0,0,1-2.37-1.29,6.2,6.2,0,0,1-1.44-1.94,4.72,4.72,0,0,1-.5-2.3,5,5,0,0,1,2.16-4.46,19.32,19.32,0,0,1,7.48-2.45,61.21,61.21,0,0,0,9.93-2.52v4.82a9.8,9.8,0,0,1-.72,4.24C135.83,331.16,132.09,333.24,126.62,333.24Z"/><path class="cls-3" d="M192.72,288.22v14.24l-1.08-.29c-7.34-1.8-11.87-.58-14.39,3.52a9,9,0,0,0-1.08,2.95,17.8,17.8,0,0,0-.36,3.16,11.15,11.15,0,0,0-.07,1.65v31H160.57V288.07h14.6v4a12.3,12.3,0,0,1,10.29-4.89,23.6,23.6,0,0,1,6.69.86Z"/><path class="cls-3" d="M271.84,312.1v32.37H256.59V312.1a38.47,38.47,0,0,0-.22-4.32,15.51,15.51,0,0,0-.94-3.81,5.78,5.78,0,0,0-2.09-2.88,7.62,7.62,0,0,0-7.7.07,5.7,5.7,0,0,0-2.37,2.81,17.75,17.75,0,0,0-1.37,4,20.42,20.42,0,0,0-.43,4.32v32.15H226.31V312.1a38.79,38.79,0,0,0-.22-4.39,15.81,15.81,0,0,0-.94-3.74,5.78,5.78,0,0,0-2.09-2.88,7,7,0,0,0-3.81-1,5.85,5.85,0,0,0-3.67,1.08,7.88,7.88,0,0,0-2.52,2.81,14,14,0,0,0-1.37,3.81,29,29,0,0,0-.36,4.24v32.44H196.1V288.07h14.6v4a15.39,15.39,0,0,1,4.53-3.24A18.09,18.09,0,0,1,223,287a17.39,17.39,0,0,1,8.85,2.23,15.25,15.25,0,0,1,5.68,5.25c4.53-5,9.85-7.48,15.82-7.48a19.19,19.19,0,0,1,7.55,1.58,16.12,16.12,0,0,1,6,4.6,18.28,18.28,0,0,1,2.45,4,21,21,0,0,1,1.51,4.39,33.26,33.26,0,0,1,.72,4.89Q271.84,309.07,271.84,312.1Z"/></svg>